<svg width="430" height="395" viewBox="0 0 430 395" fill="none" xmlns="http://www.w3.org/2000/svg">
<g clip-path="url(#clip0_182_466)">
<path d="M480 -3.2251H-37V395H480V-3.2251Z" fill="white"/>
<path d="M431 -3.69175V107.596C423.122 110.649 414.688 112.302 405.92 112.302C362.368 112.302 327.064 71.511 327.064 21.1923C327.064 12.5658 328.103 4.21799 330.042 -3.69175H431Z" fill="url(#paint0_linear_182_466)"/>
<path d="M142.047 -5.99997C127.322 53.0011 80.2404 96.1533 24.4349 96.1533C16.0671 96.1533 7.89575 95.183 -4.57764e-05 93.3334V-5.99997H142.047Z" fill="url(#paint1_linear_182_466)"/>
<g opacity="0.15">
<path d="M-37 37.2943V-3.2251H26.9951C13.5118 21.1403 -10.1117 37.2943 -37 37.2943Z" fill="#FFA1E5"/>
</g>
<path d="M381.975 -3.2251H430V52.2625C403.477 52.2625 381.975 27.4199 381.975 -3.2251Z" fill="url(#paint2_linear_182_466)"/>
<path opacity="0.5" d="M69.9807 291.241C81.0102 279.62 87.4585 263.754 87.6663 247.726C87.9028 229.493 80.438 211.234 84.1659 193.386C87.6876 176.525 101.91 162.414 118.784 159.037C131.488 156.495 144.533 159.617 157.408 161.047C180.627 163.627 204.872 160.451 225.42 149.325C241.533 140.601 254.762 127.429 269.997 117.244C285.231 107.06 304.198 99.7926 321.751 105.041C337.173 109.652 348.594 123.299 354.507 138.283C359.448 150.807 361.257 164.685 368.423 176.081C373.58 184.282 381.157 190.606 387.819 197.638C396.766 207.08 404.269 218.16 408.005 230.625C411.74 243.089 411.447 257.039 405.586 268.655C400.529 278.677 391.8 286.325 385.623 295.696C377.952 307.334 374.422 321.647 375.803 335.521L69.9807 291.241Z" fill="url(#paint3_linear_182_466)"/>
<path d="M202.032 355.51C295.643 355.51 371.53 352.075 371.53 347.839C371.53 343.603 295.643 340.168 202.032 340.168C108.421 340.168 32.5337 343.603 32.5337 347.839C32.5337 352.075 108.421 355.51 202.032 355.51Z" fill="#F0EBFF"/>
<path d="M291.255 103.523V332.57C291.255 339.519 285.626 345.154 278.683 345.154H176.304C176.043 345.154 175.783 345.146 175.527 345.129C173.586 345.012 171.763 344.453 170.158 343.55C169.358 343.1 168.613 342.566 167.932 341.957C165.355 339.653 163.731 336.301 163.731 332.569V103.523C163.731 96.573 169.361 90.938 176.304 90.938H278.683C285.626 90.938 291.255 96.573 291.255 103.523Z" fill="white"/>
<path d="M214.055 338.37L239.562 338.41C240.752 338.411 241.717 337.447 241.717 336.256V334.892C241.717 333.701 240.752 332.734 239.562 332.732L214.055 332.692C212.865 332.691 211.9 333.655 211.9 334.846V336.21C211.9 337.401 212.865 338.368 214.055 338.37Z" fill="#CCCCCC"/>
<path d="M212.929 102.075L240.688 102.09C241.256 102.091 241.717 101.63 241.717 101.061V101.04C241.717 100.471 241.257 100.01 240.689 100.01L212.93 99.9941C212.361 99.9938 211.9 100.455 211.9 101.024V101.045C211.9 101.613 212.361 102.074 212.929 102.075Z" fill="#CCCCCC"/>
<path d="M247.565 102.09C248.144 102.09 248.613 101.621 248.613 101.042C248.613 100.463 248.144 99.9941 247.565 99.9941C246.987 99.9941 246.518 100.463 246.518 101.042C246.518 101.621 246.987 102.09 247.565 102.09Z" fill="#CCCCCC"/>
<path d="M161.284 104.023V333.339C161.284 341.376 167.794 347.902 175.823 347.915L278.523 348.073C286.553 348.085 293.063 341.579 293.063 333.542V104.226C293.063 96.8624 287.6 90.7675 280.509 89.7877L186.564 89.5073L175.823 89.4907C167.794 89.4783 161.284 95.9843 161.284 104.023ZM165.151 104.029C165.151 98.137 169.939 93.3518 175.823 93.361L186.564 93.3775L279.985 93.621C285.236 94.3477 289.197 98.9037 289.197 104.22V333.536C289.197 339.427 284.409 344.212 278.523 344.203L175.823 344.044C169.939 344.035 165.151 339.235 165.151 333.345V104.029Z" fill="#CCCCCC"/>
<path d="M292.971 157.512L292.948 157.511V122.68H292.971C294.255 122.682 295.296 123.726 295.296 125.011V155.188C295.296 156.473 294.255 157.514 292.971 157.512Z" fill="#CCCCCC"/>
<path d="M292.971 183.497H292.948V164.146H292.971C294.255 164.148 295.296 165.192 295.296 166.477V181.174C295.296 182.459 294.255 183.499 292.971 183.497Z" fill="#CCCCCC"/>
<path d="M229.694 200.385L185.449 200.505C183.64 200.51 182.173 199.046 182.173 197.235V146.124C182.173 144.314 183.64 142.842 185.449 142.837L229.694 142.716C231.503 142.711 232.969 144.175 232.969 145.986V197.097C232.969 198.908 231.503 200.38 229.694 200.385Z" fill="#C96CFF"/>
<path d="M215.76 180.903C216.67 179.99 217.125 178.705 217.125 177.049C217.125 175.228 216.67 173.863 215.76 172.955C214.685 171.881 213.196 171.264 211.294 171.104C209.97 175.413 208.481 178.439 206.827 180.182L207.571 181.794L205.214 183.539L204.594 182.175C202.443 184.002 200.624 184.918 199.135 184.922C198.142 184.925 197.232 184.513 196.405 183.688C195.495 182.779 195.04 181.539 195.04 179.966C195.04 177.151 195.991 174.788 197.894 172.879C199.052 171.717 200.251 170.803 201.492 170.137L201.74 165.417L196.529 165.68L196.033 162.949L201.864 162.809C201.947 160.904 202.071 159.082 202.236 157.343L204.594 157.337C205.421 157.5 205.504 157.831 204.842 158.33C204.677 159.82 204.552 161.27 204.47 162.677C208.44 162.418 211.831 162.036 214.644 161.532L215.14 164.263C211.666 164.686 208.068 164.986 204.346 165.162L204.098 169.136C205.255 168.719 206.868 168.466 208.936 168.378L209.309 166.39L211.666 166.756C212.41 166.92 212.493 167.251 211.914 167.749L211.79 168.618C214.354 168.86 216.339 169.682 217.745 171.086C219.317 172.655 220.103 174.681 220.103 177.165C220.103 179.483 219.4 181.348 217.994 182.759C216.505 184.254 214.023 185.295 210.549 185.884L208.936 183.157C212.328 182.816 214.602 182.065 215.76 180.903ZM199.631 174.489C198.142 175.983 197.398 177.931 197.398 180.332C197.398 180.994 197.646 181.573 198.142 182.068C198.308 182.234 198.638 182.315 199.135 182.314C200.375 182.311 201.782 181.52 203.353 179.943C202.526 177.461 202.03 175.062 201.864 172.744C201.202 173.077 200.458 173.659 199.631 174.489ZM205.586 177.701C206.91 175.876 207.861 173.597 208.44 170.863C206.951 170.867 205.586 171.078 204.346 171.495C204.428 173.648 204.842 175.716 205.586 177.701Z" fill="white"/>
<path d="M274.407 165.969V217.08C274.407 218.89 272.94 220.368 271.132 220.382L226.886 220.694C225.077 220.705 223.611 219.249 223.611 217.437V166.326C223.611 164.516 225.077 163.038 226.886 163.024L253.931 162.834L263.431 162.766L271.132 162.712C272.94 162.701 274.407 164.158 274.407 165.969Z" fill="#FEC6C3"/>
<path d="M260.824 202.793C260.986 203.281 261.088 203.667 261.129 203.951C261.169 204.236 261.115 204.45 260.966 204.594C260.816 204.737 260.552 204.826 260.172 204.864C259.792 204.9 259.27 204.921 258.605 204.925C257.913 204.93 257.374 204.924 256.987 204.906C256.6 204.888 256.305 204.85 256.102 204.79C255.898 204.731 255.756 204.647 255.675 204.539C255.593 204.431 255.525 204.289 255.471 204.113L253.706 198.85L243.779 198.92L242.121 204.064C242.066 204.255 241.995 204.415 241.907 204.544C241.819 204.674 241.677 204.777 241.48 204.852C241.283 204.929 241.005 204.981 240.645 205.011C240.286 205.04 239.814 205.058 239.231 205.062C238.606 205.066 238.118 205.049 237.766 205.011C237.413 204.972 237.169 204.876 237.033 204.722C236.897 204.567 236.85 204.346 236.89 204.061C236.931 203.776 237.033 203.395 237.196 202.919L245.333 179.497C245.415 179.265 245.509 179.078 245.618 178.935C245.726 178.792 245.899 178.682 246.137 178.606C246.374 178.53 246.704 178.48 247.124 178.456C247.544 178.433 248.101 178.419 248.793 178.414C249.594 178.409 250.231 178.414 250.706 178.431C251.181 178.448 251.55 178.493 251.815 178.566C252.079 178.639 252.269 178.75 252.385 178.898C252.5 179.047 252.599 179.249 252.68 179.506L260.824 202.793ZM248.732 183.545L248.712 183.546L244.988 194.786L252.439 194.734L248.732 183.545Z" fill="white"/>
<path d="M239.612 153.23L246.273 157.512C246.944 157.943 247.844 157.439 247.844 156.631V154.535C253.636 154.389 258.349 158.987 258.349 164.785L256.255 164.838C255.448 164.858 254.967 165.771 255.415 166.431L259.861 172.987C260.26 173.577 261.141 173.555 261.541 172.945L265.987 166.165C266.435 165.482 265.954 164.593 265.147 164.614L263.052 164.666C263.052 156.272 256.23 149.615 247.844 149.827V147.731C247.844 146.923 246.944 146.464 246.273 146.929L239.612 151.548C239.013 151.963 239.013 152.844 239.612 153.23Z" fill="#F58D8B"/>
<path d="M216.969 210.237L210.307 205.955C209.636 205.524 208.736 206.028 208.736 206.835V208.932C202.944 209.078 198.232 204.48 198.232 198.682L200.326 198.629C201.133 198.608 201.614 197.696 201.166 197.036L196.72 190.48C196.32 189.89 195.44 189.912 195.04 190.522L190.594 197.302C190.146 197.985 190.627 198.873 191.434 198.853L193.528 198.8C193.528 207.194 200.35 213.851 208.737 213.64V215.736C208.737 216.544 209.636 217.003 210.307 216.537L216.969 211.919C217.568 211.504 217.568 210.622 216.969 210.237Z" fill="#8D00DE"/>
<path d="M226.809 289.06C235.446 289.06 242.447 282.051 242.447 273.406C242.447 264.761 235.446 257.753 226.809 257.753C218.172 257.753 211.171 264.761 211.171 273.406C211.171 282.051 218.172 289.06 226.809 289.06Z" fill="#95B0FF"/>
<path d="M226.809 292.715C216.173 292.715 207.519 284.053 207.519 273.406C207.519 262.76 216.173 254.098 226.809 254.098C237.445 254.098 246.098 262.76 246.098 273.406C246.098 284.053 237.445 292.715 226.809 292.715ZM226.809 254.937C216.635 254.937 208.357 263.222 208.357 273.406C208.357 283.59 216.635 291.876 226.809 291.876C236.983 291.876 245.26 283.59 245.26 273.406C245.26 263.222 236.983 254.937 226.809 254.937Z" fill="#95B0FF"/>
<g opacity="0.4">
<path d="M226.809 296.71C213.971 296.71 203.527 286.256 203.527 273.406C203.527 260.556 213.971 250.102 226.809 250.102C239.646 250.102 250.09 260.556 250.09 273.406C250.09 286.256 239.646 296.71 226.809 296.71ZM226.809 250.897C214.409 250.897 204.321 260.994 204.321 273.406C204.321 285.818 214.409 295.916 226.809 295.916C239.209 295.916 249.297 285.818 249.297 273.406C249.297 260.994 239.209 250.897 226.809 250.897Z" fill="#95B0FF"/>
</g>
<g opacity="0.2">
<path d="M226.809 302.069C219.16 302.069 211.97 299.087 206.561 293.674C201.153 288.26 198.174 281.062 198.174 273.406C198.174 265.75 201.153 258.553 206.561 253.139C211.97 247.726 219.16 244.744 226.809 244.744C234.457 244.744 241.648 247.725 247.056 253.139C252.465 258.553 255.443 265.75 255.443 273.406C255.443 281.062 252.465 288.26 247.056 293.674C241.648 299.087 234.457 302.069 226.809 302.069ZM226.809 245.343C211.35 245.343 198.773 257.932 198.773 273.406C198.773 288.88 211.35 301.469 226.809 301.469C242.268 301.469 254.845 288.88 254.845 273.406C254.845 257.932 242.268 245.343 226.809 245.343Z" fill="#95B0FF"/>
</g>
<path d="M226.832 274.233H226.786C225.519 274.233 224.493 273.206 224.493 271.938V266.922C224.493 265.654 225.52 264.627 226.786 264.627H226.832C228.098 264.627 229.124 265.654 229.124 266.922V271.938C229.125 273.206 228.098 274.233 226.832 274.233Z" fill="white"/>
<path d="M226.832 276.665H226.786C224.589 276.665 222.7 275.171 222.192 273.032C222.129 272.771 222.291 272.509 222.552 272.446C222.813 272.384 223.075 272.546 223.137 272.807C223.541 274.506 225.041 275.692 226.786 275.692H226.832C228.577 275.692 230.077 274.506 230.481 272.807C230.543 272.546 230.805 272.384 231.066 272.446C231.327 272.509 231.488 272.771 231.426 273.032C230.918 275.171 229.029 276.665 226.832 276.665Z" fill="white"/>
<path d="M226.786 281.431C226.517 281.431 226.3 281.213 226.3 280.945V276.178C226.3 275.91 226.517 275.692 226.786 275.692C227.054 275.692 227.272 275.91 227.272 276.178V280.945C227.272 281.213 227.054 281.431 226.786 281.431Z" fill="white"/>
<path d="M226.786 282.186C228.707 282.186 230.264 281.761 230.264 281.236C230.264 280.712 228.707 280.287 226.786 280.287C224.865 280.287 223.308 280.712 223.308 281.236C223.308 281.761 224.865 282.186 226.786 282.186Z" fill="white"/>
<path d="M336.39 338.416C336.39 340.299 336.29 341.905 336.096 343.234C335.901 344.565 335.639 345.619 335.315 346.398C334.99 347.178 334.566 347.712 334.047 348.004C333.528 348.297 332.942 348.442 332.293 348.442H275.418C273.661 348.442 272.314 347.86 271.37 346.691C270.427 345.522 269.956 343.606 269.956 340.944V336.465C269.956 335.296 270.003 334.242 270.1 333.301C270.198 332.361 270.392 331.452 270.687 330.576C270.979 329.699 271.368 328.807 271.857 327.898C272.346 326.989 272.98 325.982 273.763 324.878L306.367 274.43H275.495C274.257 274.43 273.264 273.653 272.516 272.095C271.767 270.536 271.393 268.038 271.393 264.599C271.393 262.718 271.473 261.145 271.637 259.878C271.8 258.615 272.044 257.608 272.369 256.861C272.693 256.117 273.117 255.58 273.639 255.255C274.158 254.93 274.777 254.768 275.495 254.768H328.722C329.63 254.768 330.411 254.865 331.063 255.06C331.714 255.255 332.25 255.612 332.675 256.132C333.099 256.651 333.423 257.366 333.653 258.275C333.88 259.184 333.995 260.318 333.995 261.682V266.452C333.995 267.751 333.927 268.905 333.797 269.909C333.668 270.916 333.471 271.872 333.211 272.781C332.952 273.691 332.577 274.6 332.088 275.509C331.599 276.418 331.028 277.39 330.376 278.429L297.903 328.78H332.288C332.872 328.78 333.426 328.91 333.947 329.169C334.466 329.429 334.905 329.916 335.265 330.631C335.624 331.345 335.901 332.334 336.096 333.598C336.29 334.864 336.39 336.47 336.39 338.416Z" fill="#F58D8B"/>
<path d="M355.55 338.416C355.55 340.299 355.45 341.905 355.255 343.234C355.061 344.565 354.799 345.619 354.474 346.398C354.15 347.178 353.726 347.712 353.207 348.004C352.688 348.297 352.101 348.442 351.453 348.442H294.578C292.821 348.442 291.474 347.86 290.53 346.691C289.587 345.522 289.115 343.606 289.115 340.944V336.465C289.115 335.296 289.163 334.242 289.26 333.301C289.358 332.361 289.552 331.452 289.847 330.576C290.139 329.699 290.528 328.807 291.017 327.898C291.506 326.989 292.14 325.982 292.923 324.878L325.527 274.43H294.655C293.417 274.43 292.424 273.653 291.676 272.095C290.927 270.536 290.553 268.038 290.553 264.599C290.553 262.718 290.633 261.145 290.797 259.878C290.96 258.615 291.204 257.608 291.529 256.861C291.853 256.117 292.277 255.58 292.799 255.255C293.318 254.93 293.937 254.768 294.655 254.768H347.882C348.79 254.768 349.571 254.865 350.223 255.06C350.874 255.255 351.41 255.612 351.835 256.132C352.259 256.651 352.583 257.366 352.813 258.275C353.04 259.184 353.155 260.318 353.155 261.682V266.452C353.155 267.751 353.087 268.905 352.957 269.909C352.828 270.916 352.631 271.872 352.371 272.781C352.112 273.691 351.737 274.6 351.248 275.509C350.759 276.418 350.188 277.39 349.536 278.429L317.063 328.78H351.448C352.032 328.78 352.586 328.91 353.107 329.169C353.626 329.429 354.065 329.916 354.425 330.631C354.784 331.345 355.061 332.334 355.256 333.598C355.45 334.864 355.55 336.47 355.55 338.416Z" fill="#FEC6C3"/>
<path d="M342.319 225.78C344.652 226.713 346.914 227.911 348.757 229.62C349.574 230.379 350.334 231.295 350.507 232.397C350.674 233.454 350.495 235.158 350.022 236.118C349.275 237.637 348.405 238.575 346.934 239.41C345.508 240.221 343.408 240.24 341.805 239.898C340.046 239.524 338.432 238.614 337.046 237.467C335.753 236.397 334.625 235.094 333.935 233.564C333.245 232.034 333.017 230.263 333.491 228.652C333.965 227.042 335.189 225.627 336.782 225.102C338.586 224.507 340.555 225.074 342.319 225.78Z" fill="#FAD0FF"/>
<path d="M333.101 209.842C333.08 210.822 333.301 211.778 333.547 212.716C333.977 214.339 334.489 215.935 335.054 217.516C335.962 220.05 337.003 222.54 338.043 225.025C338.882 227.032 339.723 229.038 340.563 231.045C341.112 232.357 341.671 233.688 342.569 234.813C343.465 235.938 344.754 236.855 346.279 237.05C346.931 237.133 347.623 237.079 348.241 236.825C348.316 236.794 348.391 236.76 348.464 236.723C348.924 236.493 349.323 236.155 349.635 235.762C350.905 234.162 350.564 232.018 350.149 230.145C349.926 229.144 349.697 228.14 349.459 227.137C347.592 219.266 345.146 211.455 340.309 204.924C339.973 204.472 339.601 204.008 339.049 203.798C338.239 203.49 337.272 203.82 336.502 204.281C334.481 205.493 333.15 207.669 333.101 209.842Z" fill="#FAD0FF"/>
<path d="M306.299 242.776L313.848 242.95L335.204 243.445L335.21 243.421C335.401 242.502 335.369 242.906 335.523 241.63C335.62 240.831 335.702 240.054 335.76 239.421C335.768 239.324 335.777 239.23 335.784 239.141L336.044 236.075L336.092 235.498L338.554 206.399C338.712 204.507 337.651 202.719 335.929 201.955C335.867 201.928 335.801 201.902 335.735 201.879L335.562 201.819C334.41 201.413 333.246 201.048 332.071 200.73C331.945 200.696 331.818 200.663 331.691 200.628C331.148 200.486 330.608 200.353 330.064 200.228C329.945 200.202 329.826 200.174 329.708 200.148C329.654 200.136 329.6 200.124 329.547 200.111C329.542 200.111 329.54 200.11 329.536 200.11C329.263 200.051 328.988 199.996 328.715 199.94C325.52 199.309 322.274 198.996 319.017 199.007C318.766 199.007 318.515 199.011 318.265 199.014C318.201 199.016 318.138 199.018 318.076 199.019C318.006 199.02 317.936 199.02 317.866 199.023C317.61 199.028 317.353 199.037 317.098 199.049C317.068 199.05 317.035 199.052 317.006 199.054C315.728 199.106 314.451 199.213 313.177 199.368L313.062 199.384C312.961 199.395 312.865 199.412 312.767 199.436C310.415 200.004 308.685 202.059 308.535 204.5L308.282 208.585L308.199 209.924L308.014 212.909V212.91L307.991 213.308L307.793 216.516L306.946 230.17L306.38 239.111C306.349 239.655 306.327 240.201 306.316 240.744C306.312 240.927 306.309 241.109 306.308 241.29L306.304 242.084L306.299 242.776Z" fill="#FAD0FF"/>
<path d="M340.625 205.432C340.625 205.432 339.517 203.159 335.931 201.957C335.931 201.957 336.386 208.273 336.366 208.154C336.347 208.034 340.625 205.432 340.625 205.432Z" fill="#FAD0FF"/>
<path d="M306.299 242.776L313.848 242.951L335.204 243.446L335.21 243.421C335.401 242.503 335.369 242.906 335.523 241.631C335.62 240.831 335.702 240.054 335.76 239.421C331.049 238.425 326.244 237.871 321.431 237.767C319.852 237.734 317.91 237.52 317.311 236.056C316.833 234.887 317.53 233.604 318.09 232.472C318.718 231.202 319.199 229.861 319.518 228.481C318.283 228.057 317.057 227.605 315.841 227.126C315.281 226.904 314.704 226.666 314.281 226.237C313.819 225.769 313.588 225.124 313.394 224.494C312.101 220.272 311.953 215.705 312.971 211.408C310.901 212.714 309.2 214.502 307.792 216.516L306.945 230.17L306.38 239.111C306.349 239.656 306.327 240.201 306.316 240.744C306.311 240.927 306.309 241.109 306.308 241.29L306.304 242.085L306.299 242.776Z" fill="#F8BDFF"/>
<path d="M334.082 233.282C334.076 233.009 334.127 232.738 334.191 232.473C334.409 231.584 334.797 230.738 335.328 229.993C335.665 229.522 336.066 229.084 336.569 228.797C337.072 228.51 337.688 228.386 338.241 228.557C338.563 228.655 338.847 228.846 339.127 229.033C339.314 229.16 339.506 229.29 339.639 229.473C339.793 229.686 339.853 229.953 339.887 230.214C339.932 230.571 339.933 230.933 339.891 231.29C339.767 232.33 339.269 233.304 338.592 234.103C337.876 234.949 336.848 235.651 335.744 235.557C335.602 235.545 335.459 235.519 335.329 235.458C335.157 235.376 335.019 235.235 334.893 235.091C334.45 234.583 334.096 233.957 334.082 233.282Z" fill="white"/>
<path d="M296.495 233.186C297.017 231.15 297.918 229.887 299.574 228.631C301.67 227.042 304.09 226.009 306.407 224.8C309.057 223.417 311.889 222.441 314.712 221.479C316.121 220.999 317.527 220.513 318.923 219.993C320.176 219.526 321.212 219.584 322.459 220.395C324.563 221.765 324.359 224.895 323.133 226.697C322.079 228.247 320.752 229.597 319.313 230.79C317.506 232.287 315.512 233.53 313.601 234.883C311.044 236.693 308.371 238.562 305.329 239.443C302.426 240.284 298.468 239.853 296.846 236.909C296.23 235.791 296.178 234.423 296.495 233.186Z" fill="#FAD0FF"/>
<path d="M298.076 238.256C298.077 238.257 298.077 238.258 298.077 238.258C298.078 238.258 298.078 238.258 298.079 238.258C301.931 239.491 305.947 231.933 306.77 230.119C306.856 229.919 306.941 229.719 307.027 229.519C307.031 229.507 307.034 229.501 307.034 229.501C307.556 228.274 308.078 227.047 308.599 225.819C309.729 223.162 310.865 220.488 311.522 217.677C311.825 216.385 312.024 215.071 312.215 213.759C312.727 210.233 313.179 206.685 313.14 203.122C313.126 201.871 313.035 200.564 312.392 199.491C312.392 199.491 304.577 200.951 301.58 211.687C300.926 214.03 299.542 219.017 298.269 223.853C298.24 223.96 298.217 224.067 298.185 224.171C293.926 237.726 298.005 238.188 298.076 238.256Z" fill="#FAD0FF"/>
<path d="M339.722 220.747C339.682 220.682 339.641 220.615 339.579 220.57C339.351 220.399 339.02 220.625 338.911 220.889C338.75 221.282 338.841 221.73 338.96 222.137C339.356 223.493 340.042 224.763 340.958 225.838C341.028 225.92 341.121 226.01 341.228 225.991C341.227 225.93 341.265 225.871 341.32 225.848C341.212 225.008 341.105 224.168 340.997 223.328C340.97 223.116 340.942 222.901 340.871 222.7C340.8 222.502 340.69 222.321 340.58 222.143C340.294 221.677 340.008 221.212 339.722 220.747Z" fill="#FEB0AA"/>
<path d="M330.849 231.128L337.226 231.617C337.634 231.648 338.059 231.349 338.174 230.948L341.773 218.406C341.888 218.006 341.649 217.656 341.241 217.625L334.863 217.137C334.455 217.105 334.03 217.404 333.915 217.805L330.317 230.347C330.202 230.747 330.44 231.097 330.849 231.128Z" fill="#4976FF"/>
<path d="M341.077 228.687C341.114 227.847 341.152 227.006 341.19 226.165C341.218 225.535 341.181 224.777 340.699 224.58C340.195 224.373 339.608 224.947 339.221 225.497C338.206 226.94 337.485 228.603 336.803 230.255C336.501 230.985 336.201 231.733 336.107 232.501C336.059 232.887 336.068 233.287 336.224 233.593C336.38 233.899 336.712 234.084 337.035 233.953C337.236 233.872 337.404 233.688 337.562 233.511C338.648 232.291 339.695 231.024 340.701 229.714C340.814 229.566 340.93 229.412 340.995 229.233C341.059 229.056 341.068 228.869 341.077 228.687Z" fill="#FEB0AA"/>
<path d="M340.205 222.985C340.208 223.244 339.973 223.465 339.716 223.499C339.46 223.532 339.202 223.408 339.02 223.225C338.837 223.042 338.718 222.806 338.616 222.568C338.317 221.877 338.126 221.14 338.052 220.39C338.031 220.182 338.02 219.968 338.07 219.765C338.125 219.544 338.318 219.314 338.537 219.373C338.681 219.412 338.765 219.558 338.831 219.692C339.312 220.659 339.716 221.663 340.12 222.665C340.161 222.768 340.204 222.874 340.205 222.985Z" fill="#FEB0AA"/>
<path d="M339.706 222.099C339.567 221.99 339.401 221.905 339.225 221.895C339.049 221.885 338.867 221.963 338.792 222.11C338.732 222.227 338.746 222.367 338.762 222.5C338.892 223.589 339.079 224.676 339.323 225.753C339.396 226.076 339.48 226.41 339.693 226.676C339.907 226.942 340.287 227.119 340.602 227.003C340.796 226.932 340.933 226.763 341.012 226.579C341.231 226.071 341.07 225.479 340.907 224.936C340.765 224.462 340.623 223.988 340.481 223.514C340.326 222.997 340.147 222.444 339.706 222.099Z" fill="#FEB0AA"/>
<path d="M333.436 229.369C333.256 229.219 333.06 229.001 333.141 228.781C333.192 228.642 333.345 228.56 333.493 228.549C333.641 228.539 333.786 228.584 333.927 228.629C334.658 228.862 335.388 229.095 336.119 229.328C336.195 229.352 336.273 229.378 336.337 229.426C336.454 229.515 336.504 229.67 336.502 229.817C336.5 229.964 336.452 230.105 336.404 230.244C336.367 230.35 336.327 230.46 336.247 230.538C336.085 230.697 335.821 230.672 335.601 230.614C334.789 230.402 334.081 229.906 333.436 229.369Z" fill="#FEC1BC"/>
<path d="M333.316 226.576C333.439 226.45 333.642 226.462 333.817 226.483C334.733 226.596 335.651 226.708 336.551 226.915C336.746 226.959 336.955 227.018 337.074 227.179C337.181 227.323 337.189 227.522 337.133 227.692C337.076 227.862 336.963 228.007 336.841 228.137C336.711 228.277 336.554 228.411 336.364 228.427C336.218 228.439 336.077 228.377 335.94 228.322C335.15 227.998 334.288 227.816 333.588 227.326C333.464 227.239 333.342 227.138 333.275 227.002C333.209 226.866 333.21 226.686 333.316 226.576Z" fill="#FEC1BC"/>
<path d="M337.662 224.983C337.557 224.841 337.388 224.768 337.227 224.701C336.315 224.321 335.403 223.942 334.491 223.563C334.356 223.507 334.216 223.45 334.069 223.46C333.922 223.47 333.767 223.568 333.737 223.718C333.707 223.866 333.802 224.002 333.895 224.113C334.474 224.807 335.184 225.382 335.976 225.797C336.227 225.929 336.493 226.046 336.777 226.07C337.061 226.094 337.368 226.011 337.57 225.795C337.772 225.578 337.833 225.214 337.662 224.983Z" fill="#FEC1BC"/>
<path d="M336.064 229.297C336.481 229.466 336.897 229.636 337.314 229.806C337.549 229.901 337.788 230 337.979 230.166C338.296 230.443 338.441 230.902 338.34 231.311C338.319 231.394 338.288 231.477 338.229 231.539C338.109 231.665 337.892 231.686 337.81 231.84C337.403 232.028 336.951 231.72 336.609 231.43C336.216 231.097 335.821 230.761 335.491 230.365C335.315 230.154 335.151 229.892 335.204 229.622C335.252 229.378 335.496 229.189 335.744 229.205C335.855 229.212 335.96 229.255 336.064 229.297Z" fill="#FEB0AA"/>
<path d="M335.81 227.551C335.794 227.326 335.877 227.076 336.074 226.967C336.267 226.861 336.506 226.915 336.716 226.982C337.504 227.232 338.244 227.632 338.886 228.153C339.12 228.343 339.347 228.556 339.479 228.827C339.611 229.098 339.634 229.44 339.469 229.693C339.269 229.999 338.846 230.094 338.49 230.011C338.135 229.928 337.831 229.704 337.543 229.479C337.22 229.228 336.903 228.971 336.592 228.706C336.228 228.396 335.846 228.028 335.81 227.551Z" fill="#FEB0AA"/>
<path d="M336.875 226.07C336.662 225.875 336.467 225.694 336.372 225.473C336.286 225.271 336.3 225.005 336.458 224.84C336.58 224.713 336.769 224.658 336.948 224.666C337.143 224.675 337.333 224.749 337.532 224.835C338.001 225.039 338.559 225.325 339.176 225.754C339.683 226.106 340.261 226.59 340.478 227.155C340.72 227.783 340.292 228.315 339.484 228.098C338.953 227.956 338.495 227.555 338.148 227.237C337.634 226.766 337.218 226.385 336.875 226.07Z" fill="#FEB0AA"/>
<path d="M323.958 224.905C324.105 225.493 323.822 226.128 323.39 226.537C322.959 226.946 322.4 227.171 321.85 227.369C321.113 227.635 320.346 227.87 319.569 227.826C318.792 227.781 317.994 227.406 317.608 226.7C317.493 226.488 317.418 226.256 317.344 226.025C317.248 225.723 317.15 225.421 317.054 225.118C316.773 224.244 317.036 223.066 317.49 222.271C318.046 221.298 319.174 220.888 320.219 220.594C320.689 220.461 321.198 220.339 321.652 220.519C322.162 220.72 322.474 221.249 322.735 221.75C323.252 222.741 323.686 223.812 323.958 224.905Z" fill="white"/>
<path d="M322.08 219.989C321.744 220.211 321.389 220.444 321.02 220.697C320.519 221.04 319.977 221.435 319.65 222.105C319.372 222.675 319.287 223.39 319.412 224.089C319.486 224.506 319.633 224.908 319.86 225.239C320.304 225.883 320.989 226.167 321.584 226.174C322.118 226.181 322.601 225.992 323.027 225.784C323.836 225.389 324.507 224.902 325.057 224.347C325.199 224.203 325.339 224.048 325.437 223.823C325.523 223.626 325.576 223.382 325.607 223.131C325.683 222.511 325.635 221.788 325.456 221.149C325.26 220.451 324.899 219.824 324.467 219.516C323.703 218.974 322.904 219.447 322.08 219.989Z" fill="#FEC1BC"/>
<path d="M323.53 224.517C322.836 224.595 322.057 224.648 321.527 224.177C321.197 223.883 321.028 223.426 320.991 222.973C320.953 222.52 321.034 222.065 321.131 221.621C321.422 220.295 321.864 219.005 322.444 217.786C322.555 217.553 322.675 217.317 322.858 217.14C323.024 216.979 323.233 216.877 323.439 216.78C324.534 216.264 325.663 215.826 326.814 215.471C326.931 215.435 327.053 215.399 327.174 215.413C327.542 215.457 327.718 215.909 327.759 216.294C327.845 217.093 327.684 217.897 327.627 218.699C327.578 219.377 327.605 220.061 327.707 220.732C327.729 220.876 327.776 221.046 327.911 221.083C327.993 221.106 328.078 221.068 328.163 221.054C328.411 221.013 328.67 221.218 328.7 221.478C327.742 222.04 327.169 223.141 326.242 223.759C325.444 224.29 324.468 224.41 323.53 224.517Z" fill="#FEB0AA"/>
<path d="M330.759 219.088C330.943 219.121 331.131 219.169 331.286 219.281C331.441 219.394 331.556 219.585 331.53 219.77C331.493 220.042 331.2 220.169 330.95 220.264C329.755 220.722 328.71 221.477 327.594 222.096C327.319 222.249 327.029 222.397 326.709 222.412C326.389 222.427 326.03 222.277 325.883 221.977C325.796 221.8 325.792 221.597 325.818 221.408C325.874 220.997 326.06 220.614 326.343 220.328C326.605 220.063 326.94 219.886 327.278 219.728C328.352 219.226 329.554 218.877 330.759 219.088Z" fill="#FEB0AA"/>
<path d="M328.172 216.554C327.872 216.467 327.59 216.253 327.437 215.995C327.283 215.736 327.261 215.44 327.378 215.22C327.575 214.853 328.087 214.751 328.563 214.7C329.213 214.631 329.88 214.608 330.556 214.629C330.963 214.642 331.47 214.726 331.697 215.074C331.907 215.394 331.735 215.741 331.48 215.937C331.053 216.267 330.436 216.362 329.842 216.448C329.585 216.486 329.327 216.523 329.07 216.561C328.782 216.603 328.48 216.644 328.172 216.554Z" fill="#FEC1BC"/>
<path d="M330.186 215.197C330.188 214.982 330.332 214.805 330.539 214.731C330.747 214.656 331.01 214.68 331.25 214.778C331.499 214.879 331.717 215.052 331.94 215.206C332.483 215.58 333.086 215.861 333.636 216.225C333.881 216.388 334.15 216.646 334.071 216.863C334.017 217.012 333.82 217.056 333.64 217.077C333.056 217.144 332.411 217.114 331.814 216.843C331.419 216.664 331.068 216.389 330.75 216.097C330.466 215.837 330.182 215.517 330.186 215.197Z" fill="#FEC1BC"/>
<path d="M326.606 215.601C326.653 215.279 326.823 214.971 327.048 214.796C327.274 214.622 327.55 214.585 327.771 214.701C328.139 214.893 328.295 215.432 328.397 215.934C328.537 216.621 328.636 217.327 328.694 218.045C328.729 218.477 328.708 219.018 328.407 219.275C328.13 219.511 327.783 219.344 327.569 219.083C327.209 218.644 327.048 217.994 326.898 217.368C326.833 217.096 326.768 216.825 326.703 216.553C326.631 216.25 326.557 215.932 326.606 215.601Z" fill="#FEC1BC"/>
<path d="M328.117 217.677C328.32 217.67 328.503 217.815 328.597 218.032C328.691 218.249 328.698 218.529 328.634 218.787C328.567 219.056 328.43 219.295 328.311 219.539C328.021 220.131 327.826 220.782 327.547 221.382C327.422 221.649 327.21 221.945 326.997 221.871C326.85 221.82 326.785 221.613 326.745 221.423C326.615 220.806 326.568 220.121 326.754 219.476C326.878 219.049 327.096 218.665 327.334 218.315C327.546 218.002 327.815 217.687 328.117 217.677Z" fill="#FEC1BC"/>
<path d="M325.208 215.816C325.282 215.542 325.482 215.317 325.731 215.228C325.98 215.14 326.273 215.189 326.497 215.358C326.869 215.64 326.993 216.167 327.064 216.647C327.161 217.302 327.214 217.963 327.222 218.622C327.227 219.018 327.167 219.496 326.832 219.636C326.524 219.764 326.172 219.511 325.966 219.214C325.62 218.715 325.499 218.086 325.387 217.481C325.338 217.22 325.29 216.958 325.241 216.696C325.187 216.403 325.133 216.097 325.208 215.816Z" fill="#FEC1BC"/>
<path d="M326.644 218.121C326.857 218.176 327.039 218.36 327.121 218.581C327.204 218.803 327.192 219.056 327.106 219.268C327.016 219.488 326.855 219.66 326.712 219.843C326.365 220.286 326.113 220.81 325.775 221.262C325.625 221.463 325.381 221.665 325.162 221.535C325.012 221.446 324.959 221.242 324.931 221.06C324.839 220.47 324.84 219.844 325.082 219.323C325.243 218.978 325.5 218.7 325.776 218.458C326.021 218.242 326.326 218.04 326.644 218.121Z" fill="#FEC1BC"/>
<path d="M323.963 216.433C324.038 216.184 324.229 215.977 324.464 215.891C324.699 215.805 324.972 215.842 325.176 215.989C325.518 216.233 325.622 216.705 325.678 217.135C325.754 217.723 325.788 218.317 325.781 218.91C325.777 219.267 325.71 219.698 325.394 219.832C325.104 219.956 324.781 219.737 324.595 219.474C324.283 219.033 324.184 218.47 324.093 217.928C324.053 217.693 324.014 217.459 323.974 217.224C323.93 216.962 323.887 216.687 323.963 216.433Z" fill="#FEC1BC"/>
<path d="M325.439 218.546C325.603 218.629 325.715 218.808 325.738 218.998C325.761 219.188 325.699 219.384 325.585 219.534C325.466 219.69 325.298 219.795 325.143 219.912C324.767 220.194 324.452 220.558 324.082 220.85C323.917 220.98 323.675 221.092 323.521 220.949C323.416 220.85 323.414 220.68 323.428 220.532C323.473 220.051 323.602 219.559 323.908 219.196C324.111 218.955 324.379 218.785 324.656 218.647C324.902 218.523 325.194 218.422 325.439 218.546Z" fill="#FEC1BC"/>
<path d="M323.799 217.854C324.076 217.784 324.356 217.672 324.554 217.457C324.752 217.241 324.849 216.902 324.723 216.635C324.67 216.522 324.58 216.429 324.473 216.374C324.324 216.299 324.152 216.298 323.987 216.304C323.724 216.314 323.458 216.34 323.211 216.437C322.965 216.535 322.738 216.712 322.622 216.96C322.547 217.122 322.524 217.321 322.603 217.481C322.671 217.619 322.804 217.709 322.938 217.779C323.036 217.831 323.14 217.876 323.248 217.897C323.431 217.932 323.619 217.901 323.799 217.854Z" fill="#FEC1BC"/>
<path d="M320.54 222.818C320.576 222.023 320.622 221.212 320.893 220.466C320.99 220.199 321.115 219.943 321.239 219.688C321.642 218.865 322.045 218.042 322.448 217.219C322.544 217.021 322.645 216.818 322.803 216.671C322.962 216.523 323.194 216.441 323.39 216.525C323.608 216.619 323.714 216.89 323.705 217.138C323.697 217.385 323.601 217.618 323.522 217.852C323.295 218.522 323.205 219.232 323.117 219.936C323.047 220.491 322.977 221.053 323.037 221.609C323.07 221.915 323.142 222.215 323.167 222.522C323.223 223.198 323.018 223.933 322.504 224.348C321.989 224.763 321.146 224.732 320.771 224.181C320.51 223.799 320.519 223.289 320.54 222.818Z" fill="#FEC1BC"/>
<path d="M319.042 199.603C318.435 202.087 320.353 204.69 323.324 205.416C326.297 206.144 329.197 204.719 329.804 202.236C329.885 201.904 329.921 201.57 329.915 201.238C329.863 201.217 329.813 201.198 329.761 201.178C329.758 201.176 329.754 201.175 329.751 201.174C329.49 201.073 329.228 200.975 328.966 200.879C325.909 199.758 322.749 198.944 319.53 198.449C319.31 198.8 319.143 199.187 319.042 199.603Z" fill="white"/>
<path d="M328.745 199.023L328.144 201.486C327.655 203.488 325.805 204.03 323.806 203.541L323.734 203.523C321.789 203.047 320.4 201.802 320.8 199.838L321.856 194.653C321.996 193.965 322.101 193.27 322.17 192.571L322.558 188.631L330.794 190.646L328.745 199.023Z" fill="#FEB0AA"/>
<path d="M320.997 188.374C320.997 188.374 319.235 183.202 320.802 178.491C320.802 178.491 337.906 175.899 339.713 182.114C339.713 182.114 333.896 191.594 320.997 188.374Z" fill="#9991A6"/>
<path d="M321.636 185.833C320.847 185.847 319.816 186.298 319.445 187.71C318.765 190.298 320.397 191.944 321.685 193.005C323.465 194.471 324.878 192.64 324.934 190.382C324.978 188.618 323.752 185.796 321.636 185.833Z" fill="#FEC1BC"/>
<path d="M325.44 176.959C325.44 176.959 332.854 168.465 334.617 174.288C334.617 174.288 344.509 170.68 341.717 177.288C341.717 177.288 347.231 180.107 339.785 184.813C339.785 184.813 327.678 190.231 325.44 176.959Z" fill="#5D5576"/>
<path d="M325.788 184.032C324.989 185.337 324.509 186.817 324.107 188.283C323.227 191.482 322.277 197.019 325.552 199.211C326.545 199.874 327.659 200.41 328.806 200.738C330.534 201.233 332.336 201.258 333.896 200.542C334.855 200.105 335.723 199.387 336.428 198.329C336.77 197.818 337.036 197.274 337.247 196.705C337.296 196.574 337.342 196.441 337.385 196.308C337.766 195.14 337.943 193.889 338.08 192.651C338.086 192.605 338.09 192.56 338.096 192.513C338.11 192.383 338.124 192.255 338.137 192.125C338.196 191.599 338.249 191.076 338.315 190.567C338.492 189.172 338.891 187.823 339.208 186.457C339.439 185.461 340.04 183.888 339.653 182.896C338.783 180.659 334.48 180.655 332.517 180.716C330.978 180.762 329.454 181.07 328.16 181.783C327.219 182.3 326.4 183.032 325.788 184.032Z" fill="#FEC1BC"/>
<path d="M325.44 176.959C325.44 176.959 318.863 176.412 320.321 180.511C320.321 180.511 322.57 183.408 326.779 177.982L325.44 176.959Z" fill="#5D5576"/>
<path d="M327.163 182.183C327.163 182.183 327.005 187.874 324.994 188.197C324.548 188.269 324.13 187.951 324.036 187.508L323.187 183.503L327.163 182.183Z" fill="#9991A6"/>
<path d="M336.065 187.624C335.913 188.046 336.63 188.69 337.665 189.063C338.701 189.436 339.011 189.18 339.162 188.758C339.314 188.336 339.25 187.908 338.214 187.536C337.179 187.162 336.216 187.202 336.065 187.624Z" fill="#5D5576"/>
<path d="M333.127 187.061C333.198 186.618 332.373 186.119 331.286 185.946C330.199 185.773 329.261 185.992 329.191 186.435C329.121 186.878 329.945 187.377 331.032 187.55C332.119 187.722 333.057 187.503 333.127 187.061Z" fill="#5D5576"/>
<path d="M330.106 189.791C329.986 190.155 330.086 190.515 330.327 190.594C330.569 190.674 330.862 190.443 330.981 190.079C331.101 189.714 331.001 189.355 330.759 189.275C330.518 189.196 330.225 189.427 330.106 189.791Z" fill="#5D5576"/>
<path d="M335.982 191.238C335.863 191.602 335.962 191.962 336.204 192.041C336.446 192.121 336.739 191.89 336.858 191.525C336.977 191.161 336.878 190.802 336.636 190.722C336.394 190.643 336.102 190.874 335.982 191.238Z" fill="#5D5576"/>
<path d="M333.896 194.427C333.81 194.427 333.731 194.369 333.708 194.282C333.68 194.178 333.742 194.071 333.846 194.043C334.178 193.954 334.497 193.859 334.741 193.669C334.947 193.509 335.129 193.224 335.071 192.947C335.041 192.804 334.951 192.669 334.855 192.525C334.835 192.497 334.817 192.468 334.798 192.44C334.412 191.848 334.189 191.161 334.154 190.456C334.149 190.348 334.232 190.256 334.339 190.251C334.446 190.245 334.539 190.328 334.544 190.436C334.576 191.073 334.776 191.692 335.125 192.227L335.179 192.308C335.286 192.468 335.407 192.65 335.453 192.867C335.534 193.255 335.349 193.691 334.98 193.978C334.678 194.212 334.319 194.321 333.946 194.42C333.929 194.425 333.913 194.427 333.896 194.427Z" fill="#F67A86"/>
<path d="M332.417 196.094C332.415 196.094 332.414 196.094 332.412 196.094C330.947 196.055 329.516 195.216 328.766 193.956C328.711 193.863 328.741 193.743 328.834 193.688C328.926 193.632 329.046 193.663 329.101 193.756C329.784 194.903 331.088 195.668 332.422 195.703C332.53 195.706 332.615 195.796 332.612 195.904C332.609 196.01 332.522 196.094 332.417 196.094Z" fill="#F67A86"/>
<path d="M322.732 190.324C322.704 190.324 322.674 190.317 322.647 190.304C321.854 189.915 321.228 189.178 320.972 188.333C320.941 188.229 320.999 188.12 321.102 188.089C321.205 188.058 321.314 188.116 321.345 188.219C321.571 188.963 322.121 189.611 322.818 189.953C322.915 190 322.955 190.117 322.908 190.214C322.874 190.283 322.804 190.324 322.732 190.324Z" fill="#F67A86"/>
<path d="M330.039 196.744C330.004 196.744 329.969 196.734 329.937 196.714L329.289 196.311C329.197 196.254 329.169 196.134 329.226 196.042C329.283 195.95 329.403 195.922 329.495 195.979L330.143 196.383C330.234 196.44 330.262 196.56 330.205 196.652C330.168 196.711 330.105 196.744 330.039 196.744Z" fill="#F67A86"/>
<path d="M333.142 308.1L333.806 318.51C333.908 320.111 332.771 321.524 331.187 321.766L331.125 321.776C329.354 322.047 327.724 320.757 327.577 318.969L326.554 306.467L333.142 308.1Z" fill="#E9EAEC"/>
<path d="M327.284 319.853L329.522 319.336C331.485 315.581 335.285 316.565 335.285 316.565C336.478 323.233 340.368 327.789 340.368 327.789L340.179 330.643C340.179 330.643 333.842 335.353 327.053 331.114C325.848 325.898 327.284 319.853 327.284 319.853Z" fill="#5D5576"/>
<path d="M358.588 303.087L358.07 313.505C357.99 315.108 356.701 316.383 355.099 316.444L355.037 316.446C353.246 316.515 351.773 315.049 351.829 313.256L352.227 300.718L358.588 303.087Z" fill="#E9EAEC"/>
<path d="M359.795 314.149C361.066 319.161 369.385 323.583 369.385 323.583L369.133 325.858C366.927 330.623 358.816 326.697 358.816 326.697L350.694 322.78C349.891 317.689 351.53 313.669 351.53 313.669L353.371 314.15C353.371 314.15 358.355 308.468 359.795 314.149Z" fill="#5D5576"/>
<path d="M306.3 242.776V250.755C306.3 255.5 309.98 259.431 314.71 259.738L335.164 257.655V250.168L335.209 243.422L306.3 242.776Z" fill="#C96CFF"/>
<path d="M310.988 258.66L323.027 265.761L323.966 254.172L310.988 258.66Z" fill="#C96CFF"/>
<path d="M350.59 260.402L321.869 256.36L335.204 243.446C335.204 243.446 351.104 245.118 360.225 248.239C365.95 250.197 366.029 252.094 365.708 255.587L360.791 304.915C360.721 305.616 360.222 306.197 359.541 306.376C359.503 306.386 359.464 306.397 359.423 306.407L358.91 309.386C358.91 309.386 355.327 310.538 351.34 308.985L351.105 306.421C351.1 306.42 351.096 306.418 351.092 306.417C350.354 306.219 349.851 305.534 349.864 304.769C349.864 304.769 347.657 286.996 350.59 260.402Z" fill="#C96CFF"/>
<path d="M318.4 247.808H327.897C331.285 247.808 334.045 250.532 334.092 253.923C334.092 253.923 333.156 279.38 335.367 309.532C335.413 310.159 335.277 310.792 334.942 311.323C334.811 311.53 334.656 311.71 334.478 311.802C334.379 311.853 334.279 311.901 334.178 311.947L334.064 314.228C334.064 314.228 330.645 315.804 326.501 314.743L325.976 312.307C325.976 312.307 325.976 312.307 325.976 312.307C325.382 312.2 324.859 311.301 324.665 310.926C324.612 310.825 324.577 310.716 324.558 310.604C319.723 281.248 318.4 247.808 318.4 247.808Z" fill="#C96CFF"/>
<path d="M355.212 306.845C354.208 306.845 353.05 306.78 351.832 306.587C351.766 306.576 351.721 306.514 351.731 306.448C351.742 306.382 351.804 306.337 351.87 306.347C355.464 306.918 358.535 306.354 358.565 306.348C358.631 306.336 358.695 306.379 358.707 306.445C358.719 306.511 358.676 306.574 358.61 306.586C358.59 306.59 357.206 306.845 355.212 306.845Z" fill="white"/>
<path d="M327.684 312.538C327.326 312.538 326.949 312.535 326.552 312.528C326.485 312.527 326.432 312.472 326.433 312.405C326.434 312.338 326.488 312.285 326.554 312.285C326.555 312.285 326.555 312.285 326.556 312.285C331.566 312.373 333.417 311.849 333.435 311.844C333.5 311.825 333.567 311.862 333.586 311.926C333.605 311.99 333.568 312.058 333.503 312.077C333.434 312.097 331.875 312.538 327.684 312.538Z" fill="white"/>
<path d="M333.986 258.187C333.919 258.187 333.865 258.133 333.865 258.066L333.846 252.77C333.846 252.752 333.86 251.277 332.659 249.761C331.547 248.357 329.135 246.628 323.961 246.366C323.894 246.362 323.842 246.305 323.846 246.238C323.849 246.171 323.912 246.119 323.973 246.123C329.25 246.391 331.718 248.175 332.86 249.624C334.107 251.207 334.09 252.709 334.088 252.772L334.107 258.065C334.108 258.132 334.054 258.186 333.987 258.187C333.986 258.187 333.986 258.187 333.986 258.187Z" fill="white"/>
<path opacity="0.2" d="M402.841 180.66H353.452C351.807 180.66 350.473 181.995 350.473 183.643V195.027V197.817V205.169C350.473 206.147 351.616 206.678 352.362 206.046L358.56 200.799H402.841C404.486 200.799 405.82 199.464 405.82 197.817V183.643C405.82 181.995 404.486 180.66 402.841 180.66Z" fill="#95B0FF"/>
<path d="M188.231 338.936C189.009 341.278 189.499 343.132 189.693 344.496C189.888 345.862 189.626 346.886 188.912 347.57C188.199 348.255 186.931 348.674 185.112 348.839C183.29 348.999 180.79 349.081 177.606 349.081C174.292 349.081 171.71 349.031 169.858 348.936C168.007 348.836 166.592 348.642 165.619 348.349C164.643 348.057 163.959 347.65 163.57 347.131C163.181 346.611 162.856 345.929 162.597 345.082L154.108 319.668H106.618L98.6453 344.398C98.3858 345.31 98.044 346.074 97.6223 346.691C97.1981 347.31 96.5169 347.797 95.5737 348.155C94.6305 348.512 93.3005 348.757 91.5787 348.886C89.8569 349.016 87.5988 349.081 84.8041 349.081C81.8147 349.081 79.4741 348.984 77.7848 348.789C76.0955 348.594 74.9252 348.125 74.2765 347.375C73.6252 346.626 73.3981 345.57 73.5927 344.203C73.7874 342.839 74.2765 341.019 75.0575 338.741L113.984 226.752C114.373 225.648 114.827 224.753 115.346 224.069C115.865 223.387 116.694 222.868 117.832 222.508C118.969 222.151 120.544 221.924 122.56 221.826C124.574 221.729 127.239 221.679 130.553 221.679C134.385 221.679 137.439 221.729 139.715 221.826C141.988 221.923 143.76 222.151 145.028 222.508C146.295 222.868 147.204 223.405 147.758 224.119C148.309 224.833 148.781 225.81 149.17 227.044L188.231 338.936ZM130.261 246.284H130.163L112.447 300.007H148.012L130.261 246.284Z" fill="#F58D8B"/>
<path d="M169.702 338.936C170.481 341.278 170.97 343.132 171.164 344.496C171.359 345.862 171.097 346.886 170.383 347.57C169.67 348.255 168.402 348.674 166.583 348.839C164.761 348.999 162.261 349.081 159.077 349.081C155.764 349.081 153.181 349.031 151.329 348.936C149.478 348.836 148.063 348.642 147.09 348.349C146.114 348.057 145.43 347.65 145.041 347.131C144.652 346.611 144.328 345.929 144.068 345.082L135.579 319.668H88.0889L80.1165 344.398C79.857 345.31 79.5151 346.074 79.0934 346.691C78.6692 347.31 77.988 347.797 77.0448 348.155C76.1016 348.512 74.7717 348.757 73.0499 348.886C71.3281 349.016 69.0699 349.081 66.2752 349.081C63.2858 349.081 60.9453 348.984 59.256 348.789C57.5667 348.594 56.3964 348.125 55.7476 347.375C55.0964 346.626 54.8693 345.57 55.0639 344.203C55.2585 342.839 55.7476 341.019 56.5286 338.741L95.455 226.752C95.8443 225.648 96.2984 224.753 96.8175 224.069C97.3365 223.387 98.165 222.868 99.3028 222.508C100.441 222.151 102.015 221.924 104.031 221.826C106.045 221.729 108.71 221.679 112.024 221.679C115.857 221.679 118.911 221.729 121.186 221.826C123.46 221.923 125.231 222.151 126.499 222.508C127.767 222.868 128.675 223.405 129.229 224.119C129.78 224.833 130.252 225.81 130.641 227.044L169.702 338.936ZM111.732 246.284H111.634L93.9179 300.007H129.483L111.732 246.284Z" fill="#FEC6C3"/>
<path d="M103.709 263.338L103.704 273.987C103.703 275.625 104.952 276.992 106.582 277.136L106.645 277.142C108.468 277.303 110.046 275.884 110.079 274.053L110.316 261.249L103.709 263.338Z" fill="#E9EAEC"/>
<path d="M101.911 274.555C100.36 279.6 91.6499 283.682 91.6499 283.682L91.7905 286.015C93.7962 290.986 102.267 287.4 102.267 287.4L110.75 283.822C111.829 278.672 110.363 274.489 110.363 274.489L108.462 274.886C108.462 274.886 103.67 268.836 101.911 274.555Z" fill="#5D5576"/>
<path d="M83.9565 251.829L80.6972 261.014C80.196 262.426 80.8561 263.988 82.2179 264.612L82.2706 264.636C83.7938 265.333 85.5883 264.592 86.1772 263.023L90.2945 252.05L83.9565 251.829Z" fill="#E9EAEC"/>
<path d="M86.2145 263.892L84.3356 262.854C83.5324 258.976 79.8653 258.887 79.8653 258.887C77.0872 264.573 70.8827 267.671 70.8827 267.671L70.3223 270.284C70.3223 270.284 74.8121 276.141 81.9983 274.071C84.4153 269.692 86.2145 263.892 86.2145 263.892Z" fill="#5D5576"/>
<path d="M114.999 191.122C114.65 190.496 114.199 189.932 113.708 189.41C111.87 187.456 109.43 186.077 106.808 185.511C106.488 185.442 106.106 185.402 105.878 185.638C105.783 185.735 105.732 185.866 105.684 185.993C104.839 188.237 104.165 190.66 104.625 193.014C104.738 193.595 104.92 194.162 105.132 194.716C105.519 195.72 106.015 196.692 106.706 197.516C107.396 198.34 108.293 199.013 109.321 199.326C111.357 199.948 113.718 198.984 114.884 197.202C116.051 195.42 116.035 192.983 114.999 191.122Z" fill="#FAD0FF"/>
<path d="M111.643 199.267C110.818 199.548 109.825 199.656 109.047 199.233C108.269 198.811 107.921 197.981 107.767 197.205C106.968 193.175 115.222 172.983 117.685 171.096C118.96 170.119 120.732 169.72 122.241 170.27C123.338 170.67 123.996 171.692 124.171 172.741C124.345 173.788 124.111 174.866 123.847 175.907C122.013 183.13 118.712 189.706 115.367 195.85C115.089 196.36 114.809 196.87 114.445 197.332C113.757 198.204 112.77 198.884 111.643 199.267Z" fill="#FAD0FF"/>
<path d="M140.4 209.186L127.911 208.969L113.619 208.723L114.434 207.214L114.731 206.664C115.345 205.527 115.827 204.33 116.171 203.098C116.71 201.164 116.91 199.143 116.754 197.123L116.526 194.3L116.49 193.843C111.898 192.218 111.35 188.534 111.55 186.097C111.587 185.658 111.647 185.258 111.712 184.919C111.849 184.204 112.009 183.754 112.009 183.754L115.817 174.584C117.793 169.96 122.302 169.818 122.302 169.818L130.836 168.15C137.693 166.81 138.691 173.472 138.691 173.472L138.57 187.907C138.572 191.663 138.518 196.269 138.473 199.535V199.538C138.467 199.885 138.464 200.222 138.458 200.537C138.456 200.697 138.456 200.858 138.46 201.017C138.483 202.948 138.831 204.861 139.491 206.676L140.4 209.186Z" fill="#FAD0FF"/>
<path d="M140.4 209.186L127.91 208.969L114.434 207.214L114.731 206.664C115.345 205.527 115.827 204.33 116.171 203.098L131.911 205.645C132.307 205.709 132.505 205.184 132.166 204.971C129.185 203.096 122.878 198.841 120.644 195.096C120.122 194.22 119.149 193.715 118.131 193.764L116.489 193.843C111.898 192.218 111.35 188.534 111.55 186.097C111.587 185.658 111.647 185.258 111.712 184.919L111.859 184.859C111.859 184.859 115.26 190.491 130.285 184.573L132.29 183.601L138.459 201.017C138.483 202.948 138.83 204.861 139.49 206.676L140.4 209.186Z" fill="#F8BDFF"/>
<path d="M130.842 168.15C127.963 177.356 122.011 177.309 122.011 177.309C117.138 178.06 119.133 171.962 119.412 170.467C119.739 170.341 120.079 170.246 120.43 170.183L130.835 168.15H130.842Z" fill="#FEB0AA"/>
<path d="M109.045 157.484C109.822 159.635 111.454 161.486 114.04 162.472C116.582 163.441 120.154 163.288 121.809 161.198C124.168 158.219 122.987 154.56 121.173 151.714C120.097 150.025 116.741 144.747 113.449 145.82C112.936 145.987 112.511 146.285 112.124 146.596C108.905 149.189 107.708 153.781 109.045 157.484Z" fill="#5D5576"/>
<path d="M134.276 151.909C135.254 155.477 134.193 160.33 130.487 163.655C129.57 164.478 128.533 165.172 127.465 165.771C125.212 167.037 122.704 167.903 120.528 167.731C118.512 167.572 116.964 166.545 115.734 165.321C113.206 162.805 111.775 159.394 111.061 155.724C110.685 153.79 110.501 151.739 110.992 149.573C111.266 148.36 111.824 147.025 112.957 146.095C114.107 145.151 115.56 144.85 116.895 144.615C118.67 144.304 120.45 144.015 122.162 143.976C128.123 143.839 132.926 146.985 134.276 151.909Z" fill="#5D5576"/>
<path d="M124.88 143.119C125.576 141.583 127.473 140.591 129.23 140.738C130.885 140.877 132.401 141.865 133.391 143.2C134.433 144.604 135.109 146.7 133.836 148.158C132.763 149.385 130.831 149.633 129.317 149.304C127.364 148.88 125.331 147.285 124.745 145.325C124.505 144.522 124.584 143.771 124.88 143.119Z" fill="#5D5576"/>
<path d="M121.29 165.656C121.475 166.418 121.911 168.236 122.096 168.998C122.358 170.079 122.634 171.191 123.283 172.095C123.931 172.999 125.052 173.655 126.14 173.425C127.573 173.122 128.734 171.733 128.803 170.269C128.837 169.537 128.624 168.819 128.44 168.11C127.997 166.403 127.457 163.6 127.33 161.841C127.302 161.454 127.279 161.055 127.107 160.707C126.675 159.833 125.487 159.635 124.54 159.863C123.298 160.162 122.2 161.016 121.605 162.147C121.009 163.278 120.989 164.414 121.29 165.656Z" fill="#FEB0AA"/>
<path d="M129.282 155.298C130.047 155.394 131.001 155.94 131.213 157.35C131.602 159.934 129.845 161.361 128.483 162.255C126.601 163.492 125.422 161.566 125.604 159.367C125.746 157.65 127.232 155.039 129.282 155.298Z" fill="#FEC1BC"/>
<path d="M125.428 151.839C126.466 154.034 127.177 156.421 127.19 158.852C127.202 161.282 126.471 163.76 124.896 165.609C123.137 167.673 120.358 168.82 117.658 168.598C116.913 168.537 116.162 168.373 115.522 167.988C114.153 167.17 113.514 165.666 113.225 164.026C113.135 163.525 113.079 163.01 113.045 162.499C112.981 161.552 112.88 160.61 112.76 159.669C112.544 157.945 112.268 156.227 112.054 154.503C111.829 152.687 111.627 150.736 112.49 149.122C113.664 146.925 116.523 146.091 118.974 146.523C120.836 146.85 122.6 147.797 123.828 149.236C124.492 150.012 124.99 150.915 125.428 151.839Z" fill="#FEC1BC"/>
<path d="M114.983 155.822C115.112 156.219 114.391 156.503 113.346 156.757C112.302 157.01 112.055 156.841 111.987 156.561C111.92 156.282 112.057 155.997 113.101 155.744C114.146 155.49 114.893 155.549 114.983 155.822Z" fill="#46506B"/>
<path d="M121.565 154.744C121.603 155.056 120.524 155.435 119.532 155.555C118.541 155.676 118.009 155.467 117.971 155.154C117.933 154.841 118.404 154.544 119.395 154.423C120.386 154.303 121.527 154.431 121.565 154.744Z" fill="#46506B"/>
<path d="M120.688 158.491C120.766 158.857 120.632 159.196 120.389 159.248C120.146 159.299 119.886 159.044 119.808 158.678C119.731 158.312 119.865 157.973 120.108 157.922C120.351 157.87 120.611 158.125 120.688 158.491Z" fill="#46506B"/>
<path d="M114.805 159.764C114.882 160.13 114.748 160.469 114.505 160.52C114.262 160.572 114.002 160.317 113.924 159.951C113.847 159.585 113.981 159.246 114.224 159.194C114.467 159.142 114.727 159.397 114.805 159.764Z" fill="#46506B"/>
<path d="M116.477 162.159C116.115 162.159 115.731 161.975 115.512 161.763C115.199 161.461 115.07 161.041 115.183 160.692C115.247 160.497 115.374 160.345 115.498 160.198L115.559 160.124C115.89 159.719 116.132 159.236 116.26 158.726C116.278 158.654 116.352 158.61 116.424 158.628C116.496 158.646 116.539 158.719 116.521 158.792C116.384 159.34 116.123 159.859 115.768 160.294C115.747 160.32 115.725 160.345 115.704 160.371C115.592 160.504 115.487 160.63 115.439 160.776C115.346 161.061 115.503 161.38 115.699 161.569C115.91 161.773 116.328 161.947 116.635 161.872C116.707 161.854 116.78 161.899 116.798 161.971C116.815 162.043 116.771 162.116 116.699 162.134C116.627 162.151 116.552 162.159 116.477 162.159Z" fill="#F67A86"/>
<path d="M127.794 159.263C127.744 159.263 127.696 159.235 127.672 159.187C127.64 159.12 127.669 159.039 127.736 159.007C128.287 158.743 128.726 158.236 128.909 157.652C128.931 157.581 129.007 157.542 129.078 157.564C129.149 157.587 129.188 157.662 129.166 157.733C128.961 158.387 128.47 158.954 127.852 159.25C127.833 159.259 127.813 159.263 127.794 159.263Z" fill="#F67A86"/>
<path d="M117.601 163.874C117.083 163.516 117.743 162.851 118.053 162.615C118.496 162.277 119.011 162.036 119.553 161.911C119.916 161.827 120.671 161.793 120.696 162.336C120.713 162.719 120.139 162.994 119.871 163.161C119.475 163.407 119.058 163.602 118.625 163.772C118.323 163.891 117.914 164.086 117.607 163.878C117.605 163.877 117.603 163.876 117.601 163.874Z" fill="#FEB0AA"/>
<path d="M117.585 164.043C117.511 164.043 117.45 163.983 117.45 163.909C117.45 163.834 117.511 163.774 117.585 163.774C118.719 163.773 119.841 163.264 120.587 162.411C120.636 162.355 120.721 162.35 120.777 162.399C120.833 162.448 120.839 162.533 120.79 162.589C119.993 163.499 118.795 164.043 117.585 164.043Z" fill="#F67A86"/>
<path d="M119.512 164.912C119.462 164.912 119.414 164.884 119.391 164.835C119.359 164.768 119.387 164.688 119.454 164.656L120.125 164.332C120.192 164.299 120.272 164.328 120.305 164.395C120.337 164.462 120.309 164.542 120.242 164.575L119.57 164.898C119.552 164.907 119.532 164.912 119.512 164.912Z" fill="#F67A86"/>
<path d="M118.423 152.809C118.579 151.457 117.769 149.994 117.034 148.988C116.185 147.826 114.991 146.922 113.612 146.472C112.496 146.108 111.541 146.664 111.573 147.911C111.613 149.498 112.427 150.908 113.432 152.026C114.159 152.834 115.056 153.642 116.083 154.046C117.033 154.42 118.266 154.023 118.418 152.851C118.42 152.837 118.421 152.823 118.423 152.809Z" fill="#5D5576"/>
<path d="M111.191 154.039C111.788 153.749 112.272 152.594 112.575 151.648C112.926 150.553 113.11 149.244 113.071 147.917C113.04 146.843 112.647 146.196 112.125 146.614C111.462 147.146 111.001 148.287 110.695 149.502C110.474 150.38 110.281 151.404 110.281 152.414C110.28 153.347 110.652 154.283 111.173 154.047C111.179 154.044 111.185 154.041 111.191 154.039Z" fill="#5D5576"/>
<path d="M126.88 153.258C127.039 153.037 127.147 152.761 127.188 152.422C127.25 151.899 127.085 151.377 126.824 150.945C126.301 150.075 125.49 149.305 124.738 148.673C122.23 146.567 118.753 145.768 115.562 145.924C114.874 145.957 113.988 146.015 113.409 146.503C112.451 147.311 113.271 148.375 113.955 148.98C116.244 151.005 118.863 152.813 121.779 153.618C122.931 153.936 125.892 154.633 126.88 153.258Z" fill="#5D5576"/>
<path d="M130.755 161.115C131.023 161.646 130.809 162.293 130.279 162.561C129.748 162.828 129.102 162.615 128.834 162.084C128.567 161.553 128.78 160.906 129.311 160.638C129.841 160.37 130.488 160.584 130.755 161.115Z" fill="#F2F2F2"/>
<path d="M141.104 204.718C140.502 205.44 139.643 206.068 138.679 206.022C137.715 205.978 136.916 205.278 136.328 204.537C133.27 200.684 129.306 175.053 130.504 171.783C131.123 170.091 132.535 168.753 134.25 168.556C135.496 168.413 136.694 169.155 137.459 170.175C138.222 171.193 138.625 172.454 138.979 173.693C141.433 182.284 142.157 190.948 142.589 199.177C142.626 199.861 142.659 200.546 142.588 201.222C142.451 202.501 141.928 203.729 141.104 204.718Z" fill="#FAD0FF"/>
<path d="M141.281 199.131C141.888 199.722 142.497 200.417 142.518 201.241C142.529 201.651 142.389 202.05 142.235 202.433C141.81 203.494 141.227 204.55 140.261 205.217C138.809 206.22 136.741 206.119 135.146 205.331C134.503 205.014 133.92 204.599 133.354 204.17C130.002 201.632 127.136 198.515 124.939 195.019C124.081 193.654 123.313 192.197 123.083 190.623C122.852 189.05 123.232 187.33 124.41 186.205C124.753 185.878 125.171 185.601 125.649 185.52C126.344 185.401 127.041 185.71 127.634 186.077C130.069 187.585 132.412 189.656 134.315 191.744C136.651 194.308 138.79 196.702 141.281 199.131Z" fill="#FAD0FF"/>
<path d="M111.044 193.263C111.05 192.997 111.001 192.733 110.937 192.474C110.725 191.608 110.347 190.782 109.829 190.056C109.501 189.596 109.109 189.169 108.619 188.889C108.128 188.609 107.528 188.489 106.988 188.655C106.675 188.751 106.397 188.937 106.125 189.12C105.942 189.243 105.754 189.37 105.625 189.548C105.475 189.756 105.416 190.016 105.383 190.271C105.339 190.619 105.338 190.972 105.379 191.32C105.5 192.335 105.986 193.284 106.646 194.064C107.344 194.889 108.347 195.573 109.423 195.482C109.562 195.47 109.702 195.445 109.828 195.385C109.996 195.305 110.131 195.168 110.253 195.028C110.685 194.532 111.031 193.921 111.044 193.263Z" fill="white"/>
<path d="M105.706 180.62C105.745 180.556 105.785 180.491 105.845 180.447C106.068 180.28 106.39 180.501 106.496 180.758C106.654 181.141 106.565 181.578 106.449 181.975C106.062 183.297 105.393 184.536 104.5 185.584C104.432 185.665 104.341 185.752 104.237 185.733C104.238 185.675 104.201 185.617 104.147 185.594C104.252 184.775 104.357 183.956 104.462 183.137C104.489 182.93 104.516 182.721 104.585 182.524C104.654 182.331 104.762 182.155 104.869 181.981C105.148 181.527 105.427 181.073 105.706 180.62Z" fill="#FEB0AA"/>
<path d="M114.359 190.744L108.14 191.22C107.741 191.25 107.327 190.959 107.215 190.568L103.706 178.337C103.594 177.946 103.826 177.605 104.225 177.575L110.444 177.098C110.842 177.068 111.256 177.36 111.369 177.75L114.878 189.981C114.99 190.372 114.758 190.713 114.359 190.744Z" fill="#4976FF"/>
<path d="M104.384 188.363C104.348 187.544 104.311 186.724 104.274 185.904C104.247 185.289 104.283 184.55 104.753 184.357C105.244 184.156 105.816 184.716 106.194 185.252C107.184 186.66 107.887 188.281 108.553 189.893C108.846 190.604 109.139 191.334 109.231 192.083C109.278 192.459 109.269 192.849 109.117 193.147C108.964 193.446 108.641 193.626 108.325 193.498C108.13 193.419 107.966 193.24 107.812 193.067C106.753 191.878 105.731 190.642 104.751 189.364C104.64 189.22 104.527 189.07 104.464 188.896C104.401 188.723 104.392 188.541 104.384 188.363Z" fill="#FEB0AA"/>
<path d="M105.234 182.802C105.231 183.054 105.461 183.27 105.711 183.303C105.961 183.335 106.212 183.215 106.39 183.036C106.568 182.858 106.684 182.627 106.784 182.396C107.076 181.722 107.262 181.002 107.334 180.272C107.354 180.068 107.365 179.86 107.316 179.661C107.263 179.447 107.074 179.222 106.861 179.28C106.72 179.318 106.639 179.46 106.574 179.59C106.105 180.534 105.711 181.512 105.317 182.49C105.277 182.59 105.236 182.694 105.234 182.802Z" fill="#FEB0AA"/>
<path d="M105.72 181.938C105.856 181.832 106.019 181.749 106.19 181.74C106.361 181.73 106.539 181.805 106.613 181.949C106.67 182.063 106.657 182.2 106.642 182.329C106.515 183.392 106.332 184.451 106.094 185.501C106.023 185.816 105.941 186.142 105.733 186.402C105.525 186.661 105.154 186.834 104.847 186.721C104.657 186.651 104.525 186.486 104.447 186.307C104.233 185.812 104.39 185.235 104.549 184.705C104.688 184.242 104.826 183.78 104.965 183.318C105.116 182.814 105.291 182.274 105.72 181.938Z" fill="#FEB0AA"/>
<path d="M111.836 189.027C112.011 188.881 112.202 188.669 112.124 188.454C112.074 188.318 111.925 188.239 111.781 188.229C111.636 188.218 111.494 188.262 111.356 188.306C110.644 188.534 109.932 188.761 109.219 188.988C109.145 189.012 109.069 189.036 109.007 189.084C108.893 189.17 108.843 189.322 108.845 189.465C108.848 189.608 108.894 189.746 108.941 189.881C108.977 189.985 109.016 190.092 109.094 190.168C109.253 190.323 109.509 190.298 109.724 190.242C110.516 190.036 111.206 189.551 111.836 189.027Z" fill="#FEC1BC"/>
<path d="M111.953 186.305C111.833 186.181 111.635 186.193 111.464 186.214C110.571 186.324 109.675 186.433 108.798 186.635C108.608 186.678 108.404 186.736 108.288 186.892C108.184 187.032 108.175 187.227 108.23 187.393C108.285 187.558 108.396 187.7 108.515 187.827C108.642 187.963 108.795 188.094 108.98 188.109C109.123 188.121 109.261 188.061 109.393 188.007C110.164 187.691 111.005 187.513 111.688 187.036C111.809 186.951 111.927 186.853 111.993 186.72C112.058 186.587 112.056 186.411 111.953 186.305Z" fill="#FEC1BC"/>
<path d="M107.715 184.751C107.817 184.612 107.982 184.541 108.139 184.476C109.028 184.106 109.917 183.736 110.807 183.366C110.938 183.311 111.075 183.255 111.218 183.265C111.362 183.275 111.513 183.371 111.542 183.517C111.571 183.661 111.479 183.794 111.388 183.903C110.824 184.579 110.131 185.14 109.359 185.545C109.114 185.673 108.855 185.788 108.578 185.811C108.301 185.834 108.001 185.754 107.804 185.543C107.607 185.331 107.548 184.976 107.715 184.751Z" fill="#FEC1BC"/>
<path d="M109.273 188.957C108.867 189.123 108.46 189.288 108.053 189.454C107.825 189.547 107.591 189.643 107.405 189.805C107.096 190.075 106.955 190.523 107.053 190.922C107.073 191.003 107.104 191.084 107.161 191.144C107.278 191.267 107.49 191.288 107.57 191.438C107.967 191.621 108.408 191.321 108.741 191.038C109.124 190.713 109.51 190.386 109.831 190C110.003 189.794 110.164 189.538 110.112 189.275C110.065 189.037 109.826 188.853 109.585 188.868C109.476 188.875 109.374 188.916 109.273 188.957Z" fill="#FEB0AA"/>
<path d="M109.52 187.255C109.536 187.036 109.455 186.792 109.263 186.686C109.075 186.582 108.841 186.635 108.637 186.7C107.869 186.944 107.147 187.334 106.521 187.842C106.292 188.027 106.071 188.235 105.942 188.5C105.813 188.764 105.791 189.098 105.952 189.344C106.147 189.642 106.559 189.735 106.906 189.654C107.253 189.573 107.55 189.355 107.831 189.136C108.145 188.891 108.454 188.64 108.758 188.382C109.113 188.08 109.485 187.72 109.52 187.255Z" fill="#FEB0AA"/>
<path d="M108.482 185.81C108.69 185.62 108.88 185.444 108.972 185.229C109.057 185.031 109.042 184.772 108.888 184.611C108.77 184.487 108.585 184.433 108.41 184.441C108.22 184.45 108.035 184.522 107.841 184.606C107.384 184.805 106.84 185.084 106.238 185.502C105.744 185.845 105.18 186.317 104.968 186.868C104.732 187.481 105.149 188 105.937 187.789C106.456 187.65 106.902 187.259 107.241 186.949C107.742 186.489 108.147 186.118 108.482 185.81Z" fill="#FEB0AA"/>
<path d="M128.147 188.028C128.011 187.225 127.557 186.505 127.043 185.859C126.534 185.22 125.858 184.585 125.021 184.572C124.308 184.562 123.66 185.027 123.281 185.608C122.903 186.19 122.746 186.875 122.604 187.547C122.485 188.107 122.373 188.688 122.506 189.245C122.71 190.098 123.462 190.742 124.283 191.117C124.676 191.297 125.101 191.43 125.536 191.435C126.414 191.443 127.235 190.906 127.698 190.189C128.11 189.551 128.272 188.769 128.147 188.028Z" fill="white"/>
<path d="M124.11 183.976C124.418 184.181 124.742 184.395 125.079 184.628C125.537 184.944 126.032 185.307 126.322 185.91C126.568 186.424 126.632 187.062 126.502 187.684C126.425 188.054 126.28 188.409 126.062 188.7C125.637 189.265 124.995 189.504 124.443 189.499C123.947 189.494 123.503 189.316 123.112 189.122C122.369 188.754 121.756 188.307 121.258 187.801C121.128 187.67 121.002 187.529 120.915 187.326C120.84 187.149 120.796 186.931 120.773 186.706C120.714 186.152 120.774 185.509 120.954 184.943C121.149 184.325 121.498 183.773 121.905 183.507C122.625 183.039 123.357 183.477 124.11 183.976Z" fill="#FEC1BC"/>
<path d="M122.671 187.983C123.313 188.067 124.036 188.129 124.537 187.72C124.85 187.464 125.016 187.061 125.06 186.657C125.104 186.254 125.038 185.847 124.957 185.449C124.714 184.262 124.331 183.103 123.818 182.006C123.72 181.795 123.613 181.583 123.447 181.421C123.296 181.275 123.104 181.179 122.915 181.089C121.909 180.607 120.871 180.195 119.81 179.855C119.702 179.821 119.59 179.786 119.477 179.797C119.135 179.828 118.962 180.228 118.916 180.57C118.819 181.28 118.953 182 118.989 182.716C119.02 183.322 118.981 183.93 118.873 184.526C118.85 184.654 118.802 184.805 118.676 184.836C118.599 184.854 118.521 184.819 118.443 184.805C118.214 184.763 117.969 184.94 117.936 185.172C118.814 185.691 119.322 186.685 120.169 187.253C120.899 187.743 121.803 187.869 122.671 187.983Z" fill="#FEB0AA"/>
<path d="M116.075 183.001C115.903 183.026 115.727 183.065 115.581 183.163C115.435 183.26 115.325 183.428 115.344 183.593C115.373 183.837 115.643 183.955 115.872 184.045C116.973 184.477 117.927 185.171 118.949 185.745C119.201 185.886 119.468 186.024 119.764 186.044C120.061 186.064 120.397 185.937 120.54 185.673C120.624 185.517 120.632 185.336 120.612 185.166C120.569 184.799 120.404 184.454 120.147 184.194C119.909 183.953 119.602 183.788 119.292 183.641C118.305 183.171 117.197 182.836 116.075 183.001Z" fill="#FEB0AA"/>
<path d="M118.527 180.793C118.808 180.722 119.074 180.536 119.222 180.309C119.37 180.082 119.396 179.818 119.292 179.62C119.117 179.289 118.644 179.188 118.203 179.133C117.601 179.059 116.983 179.025 116.355 179.03C115.977 179.034 115.505 179.098 115.286 179.404C115.086 179.685 115.238 179.998 115.47 180.178C115.86 180.48 116.43 180.577 116.98 180.666C117.218 180.704 117.456 180.743 117.694 180.781C117.961 180.825 118.24 180.867 118.527 180.793Z" fill="#FEC1BC"/>
<path d="M116.687 179.543C116.689 179.352 116.559 179.191 116.368 179.121C116.177 179.051 115.932 179.067 115.708 179.149C115.474 179.235 115.269 179.384 115.058 179.517C114.546 179.839 113.981 180.078 113.464 180.392C113.233 180.532 112.978 180.757 113.047 180.951C113.094 181.086 113.276 181.129 113.442 181.151C113.983 181.222 114.582 181.208 115.141 180.979C115.512 180.827 115.843 180.589 116.145 180.335C116.413 180.108 116.684 179.829 116.687 179.543Z" fill="#FEC1BC"/>
<path d="M120.001 179.975C119.963 179.687 119.813 179.409 119.607 179.249C119.401 179.089 119.145 179.051 118.938 179.15C118.593 179.314 118.437 179.791 118.332 180.236C118.187 180.845 118.081 181.473 118.012 182.112C117.971 182.496 117.979 182.979 118.253 183.214C118.505 183.43 118.83 183.288 119.035 183.059C119.378 182.675 119.54 182.099 119.693 181.544C119.758 181.303 119.824 181.063 119.89 180.822C119.964 180.553 120.039 180.271 120.001 179.975Z" fill="#FEC1BC"/>
<path d="M118.555 181.795C118.367 181.786 118.194 181.911 118.103 182.102C118.011 182.293 117.998 182.543 118.052 182.775C118.109 183.016 118.231 183.231 118.337 183.451C118.593 183.985 118.761 184.569 119.008 185.109C119.118 185.349 119.309 185.618 119.508 185.556C119.646 185.513 119.71 185.33 119.751 185.162C119.885 184.615 119.942 184.004 119.783 183.426C119.677 183.043 119.482 182.697 119.268 182.379C119.078 182.097 118.835 181.81 118.555 181.795Z" fill="#FEC1BC"/>
<path d="M121.293 180.194C121.231 179.948 121.05 179.744 120.82 179.66C120.591 179.576 120.318 179.615 120.107 179.761C119.756 180.004 119.629 180.472 119.553 180.898C119.45 181.48 119.387 182.068 119.366 182.655C119.353 183.008 119.399 183.435 119.708 183.566C119.991 183.687 120.322 183.469 120.52 183.208C120.851 182.769 120.977 182.212 121.093 181.675C121.143 181.443 121.194 181.21 121.244 180.978C121.301 180.718 121.357 180.446 121.293 180.194Z" fill="#FEC1BC"/>
<path d="M119.913 182.22C119.715 182.264 119.542 182.425 119.461 182.621C119.379 182.816 119.385 183.042 119.461 183.233C119.54 183.431 119.686 183.587 119.815 183.753C120.128 184.155 120.351 184.627 120.654 185.036C120.79 185.219 121.012 185.404 121.218 185.292C121.359 185.216 121.412 185.035 121.442 184.874C121.54 184.349 121.552 183.791 121.338 183.322C121.196 183.012 120.963 182.759 120.712 182.537C120.489 182.34 120.21 182.154 119.913 182.22Z" fill="#FEC1BC"/>
<path d="M122.436 180.768C122.372 180.545 122.198 180.357 121.982 180.275C121.766 180.194 121.512 180.222 121.319 180.349C120.997 180.56 120.891 180.978 120.83 181.36C120.748 181.883 120.703 182.411 120.697 182.94C120.694 183.258 120.747 183.644 121.038 183.77C121.305 183.886 121.609 183.697 121.787 183.466C122.085 183.079 122.189 182.579 122.285 182.099C122.326 181.89 122.368 181.682 122.409 181.474C122.456 181.241 122.502 180.997 122.436 180.768Z" fill="#FEC1BC"/>
<path d="M121.023 182.623C120.868 182.694 120.761 182.851 120.736 183.02C120.711 183.189 120.764 183.365 120.867 183.501C120.974 183.642 121.128 183.739 121.269 183.846C121.612 184.105 121.897 184.436 122.234 184.703C122.385 184.823 122.607 184.927 122.753 184.803C122.853 184.717 122.857 184.565 122.848 184.433C122.816 184.003 122.707 183.562 122.43 183.233C122.247 183.014 122.001 182.857 121.748 182.728C121.522 182.613 121.252 182.518 121.023 182.623Z" fill="#FEC1BC"/>
<path d="M122.559 182.04C122.303 181.971 122.046 181.866 121.867 181.67C121.687 181.474 121.604 181.17 121.727 180.934C121.778 180.835 121.863 180.754 121.964 180.707C122.104 180.643 122.263 180.645 122.417 180.654C122.66 180.668 122.907 180.696 123.134 180.788C123.361 180.88 123.568 181.042 123.67 181.266C123.736 181.412 123.753 181.589 123.677 181.73C123.611 181.852 123.485 181.93 123.36 181.989C123.267 182.034 123.171 182.071 123.069 182.088C122.899 182.116 122.725 182.084 122.559 182.04Z" fill="#FEC1BC"/>
<path d="M125.481 186.529C125.464 185.819 125.438 185.095 125.203 184.425C125.118 184.185 125.007 183.955 124.897 183.725C124.54 182.983 124.183 182.241 123.826 181.5C123.741 181.322 123.652 181.139 123.508 181.004C123.363 180.87 123.149 180.792 122.966 180.863C122.762 180.942 122.658 181.182 122.661 181.403C122.663 181.623 122.748 181.833 122.816 182.043C123.013 182.645 123.082 183.279 123.149 183.908C123.203 184.404 123.256 184.907 123.189 185.401C123.152 185.673 123.079 185.939 123.049 186.212C122.983 186.813 123.158 187.473 123.627 187.853C124.096 188.233 124.879 188.222 125.239 187.738C125.489 187.403 125.491 186.948 125.481 186.529Z" fill="#FEC1BC"/>
<path d="M140.4 209.091L103.316 203.285C100.49 202.843 97.6958 203.493 95.5065 205.101L95.4403 205.15C93.4122 206.64 92.0405 208.853 91.5678 211.395C89.9202 220.258 85.9982 237.041 82.793 254.13L89.2678 256.301C89.2678 256.301 103.037 235.048 103.935 217.653C103.935 217.653 149.007 241.394 140.4 209.091Z" fill="#C96CFF"/>
<path d="M132.63 207.874C132.63 207.874 140.97 215.973 139.377 208.844L132.63 207.874Z" fill="#95B0FF"/>
<path d="M110.951 214.172C109.699 212.59 107.104 212.684 105.5 213.908C103.897 215.131 103.102 217.137 102.615 219.095C101.483 223.644 101.621 228.401 101.767 233.087C102.141 245.177 102.516 257.267 102.891 269.356H110.647C112.516 257.959 114.273 246.272 115.13 234.754C115.671 227.492 115.469 219.88 110.951 214.172Z" fill="#C96CFF"/>
<path d="M101.674 227.759C101.673 227.759 101.673 227.759 101.673 227.759C101.614 227.759 101.567 227.711 101.568 227.652C101.602 224.246 101.902 221.519 102.512 219.069C103.143 216.531 104.072 214.864 105.436 213.823C107.071 212.575 109.873 212.861 111.813 214.475C111.858 214.512 111.865 214.579 111.827 214.624C111.79 214.669 111.723 214.676 111.677 214.638C109.81 213.085 107.125 212.802 105.565 213.992C104.242 215.002 103.337 216.632 102.718 219.121C102.113 221.553 101.815 224.265 101.78 227.654C101.779 227.712 101.732 227.759 101.674 227.759Z" fill="white"/>
<path d="M66.1648 155.348C66.1648 155.386 66.1552 155.419 66.1363 155.448C66.1174 155.476 66.0841 155.499 66.0368 155.516C65.9894 155.532 65.9266 155.546 65.8483 155.558C65.7701 155.57 65.674 155.576 65.5602 155.576C65.4369 155.576 65.3372 155.57 65.2615 155.558C65.1856 155.546 65.1239 155.532 65.0766 155.516C65.0291 155.499 64.9959 155.476 64.977 155.448C64.958 155.419 64.9485 155.386 64.9485 155.348V151.262H60.7591V155.348C60.7591 155.386 60.7496 155.419 60.7307 155.448C60.7117 155.476 60.6785 155.499 60.6311 155.516C60.5837 155.532 60.5209 155.546 60.4425 155.558C60.3644 155.57 60.2659 155.576 60.1474 155.576C60.0336 155.576 59.9363 155.57 59.8558 155.558C59.7751 155.546 59.7111 155.532 59.6637 155.516C59.6163 155.499 59.583 155.476 59.5641 155.448C59.5451 155.419 59.5356 155.386 59.5356 155.348V146.506C59.5356 146.468 59.5451 146.434 59.5641 146.406C59.5829 146.377 59.6162 146.355 59.6637 146.338C59.7111 146.322 59.775 146.307 59.8558 146.296C59.9363 146.284 60.0336 146.278 60.1474 146.278C60.2659 146.278 60.3644 146.284 60.4425 146.296C60.5209 146.307 60.5836 146.322 60.6311 146.338C60.6785 146.355 60.7116 146.377 60.7307 146.406C60.7496 146.434 60.7591 146.468 60.7591 146.506V150.194H64.9485V146.506C64.9485 146.468 64.958 146.434 64.977 146.406C64.9958 146.377 65.0291 146.355 65.0766 146.338C65.1239 146.322 65.1857 146.307 65.2615 146.296C65.3373 146.284 65.4369 146.278 65.5602 146.278C65.674 146.278 65.7701 146.284 65.8483 146.296C65.9265 146.307 65.9894 146.322 66.0368 146.338C66.0841 146.355 66.1174 146.377 66.1363 146.406C66.1552 146.434 66.1648 146.468 66.1648 146.506V155.348Z" fill="#4976FF"/>
<path d="M73.939 151.874C73.939 152.059 73.8925 152.191 73.7996 152.269C73.7067 152.347 73.6008 152.387 73.4818 152.387H69.266C69.266 152.743 69.3016 153.063 69.3731 153.348C69.4446 153.633 69.5638 153.877 69.7305 154.081C69.8971 154.285 70.114 154.442 70.3809 154.551C70.6477 154.66 70.9741 154.715 71.3601 154.715C71.665 154.715 71.9365 154.69 72.1748 154.64C72.4131 154.59 72.6191 154.534 72.7931 154.473C72.967 154.411 73.11 154.355 73.222 154.305C73.334 154.256 73.4185 154.231 73.4758 154.231C73.5093 154.231 73.5388 154.239 73.5651 154.256C73.5913 154.272 73.6116 154.297 73.6259 154.33C73.6401 154.364 73.6509 154.41 73.658 154.469C73.665 154.529 73.6687 154.601 73.6687 154.686C73.6687 154.748 73.6662 154.801 73.6617 154.846C73.6569 154.892 73.651 154.932 73.6438 154.968C73.6368 155.003 73.6249 155.035 73.6083 155.064C73.5916 155.092 73.5703 155.119 73.5442 155.145C73.5181 155.172 73.4411 155.214 73.3131 155.274C73.185 155.333 73.019 155.391 72.8153 155.448C72.6113 155.505 72.3754 155.556 72.1075 155.601C71.8396 155.646 71.5538 155.669 71.2504 155.669C70.724 155.669 70.2627 155.595 69.8669 155.448C69.471 155.301 69.1378 155.083 68.8675 154.793C68.5973 154.504 68.3934 154.141 68.2558 153.704C68.1182 153.267 68.0496 152.759 68.0496 152.18C68.0496 151.63 68.1206 151.135 68.263 150.696C68.4053 150.257 68.6102 149.884 68.8782 149.578C69.1461 149.272 69.4697 149.037 69.8492 148.873C70.2285 148.709 70.6528 148.627 71.1223 148.627C71.6249 148.627 72.0529 148.708 72.4061 148.869C72.7593 149.031 73.0499 149.248 73.2775 149.521C73.5051 149.794 73.6723 150.114 73.7789 150.482C73.8856 150.85 73.939 151.243 73.939 151.66L73.939 151.874ZM72.7583 151.525C72.7725 150.908 72.6353 150.424 72.3468 150.073C72.0581 149.722 71.63 149.546 71.0622 149.546C70.7711 149.546 70.5159 149.6 70.2964 149.71C70.077 149.819 69.8933 149.964 69.7453 150.144C69.5974 150.324 69.4829 150.534 69.4018 150.774C69.3206 151.014 69.2755 151.264 69.2659 151.525H72.7583Z" fill="#4976FF"/>
<path d="M76.8979 155.355C76.8979 155.393 76.8883 155.425 76.8694 155.451C76.8505 155.478 76.8197 155.5 76.777 155.519C76.7343 155.538 76.675 155.552 76.5992 155.562C76.5233 155.571 76.4261 155.576 76.3075 155.576C76.1938 155.576 76.0989 155.571 76.023 155.562C75.9471 155.552 75.8867 155.538 75.8417 155.519C75.7965 155.5 75.7657 155.478 75.7493 155.451C75.7326 155.425 75.7244 155.393 75.7244 155.355V145.844C75.7244 145.806 75.7326 145.772 75.7493 145.744C75.7658 145.715 75.7966 145.692 75.8417 145.673C75.8867 145.654 75.9472 145.639 76.023 145.63C76.0989 145.62 76.1938 145.616 76.3075 145.616C76.4261 145.616 76.5233 145.621 76.5992 145.63C76.675 145.64 76.7343 145.654 76.777 145.673C76.8197 145.692 76.8505 145.715 76.8694 145.744C76.8883 145.772 76.8979 145.806 76.8979 145.844V155.355Z" fill="#4976FF"/>
<path d="M80.2409 155.355C80.2409 155.393 80.2313 155.425 80.2125 155.451C80.1935 155.478 80.1627 155.5 80.12 155.519C80.0773 155.538 80.0181 155.552 79.9422 155.562C79.8663 155.571 79.7691 155.576 79.6506 155.576C79.5368 155.576 79.4419 155.571 79.366 155.562C79.2901 155.552 79.2297 155.538 79.1847 155.519C79.1396 155.5 79.1087 155.478 79.0923 155.451C79.0756 155.425 79.0674 155.393 79.0674 155.355V145.844C79.0674 145.806 79.0756 145.772 79.0923 145.744C79.1088 145.715 79.1396 145.692 79.1847 145.673C79.2297 145.654 79.2902 145.639 79.366 145.63C79.4419 145.62 79.5368 145.616 79.6506 145.616C79.7691 145.616 79.8663 145.621 79.9422 145.63C80.0181 145.64 80.0773 145.654 80.12 145.673C80.1627 145.692 80.1935 145.715 80.2125 145.744C80.2313 145.772 80.2409 145.806 80.2409 145.844V155.355Z" fill="#4976FF"/>
<path d="M88.3637 152.08C88.3637 152.603 88.295 153.083 88.1575 153.522C88.0199 153.961 87.8149 154.34 87.5422 154.658C87.2695 154.976 86.9281 155.224 86.518 155.402C86.1077 155.58 85.6324 155.669 85.0919 155.669C84.5655 155.669 84.1068 155.59 83.7156 155.434C83.3243 155.277 82.9982 155.049 82.7375 154.75C82.4767 154.451 82.2824 154.088 82.1543 153.661C82.0263 153.234 81.9622 152.75 81.9622 152.209C81.9622 151.687 82.0298 151.206 82.1649 150.767C82.3 150.328 82.5039 149.949 82.7766 149.631C83.0492 149.313 83.3893 149.067 83.7972 148.891C84.205 148.715 84.6816 148.627 85.2269 148.627C85.7533 148.627 86.212 148.706 86.6033 148.862C86.9945 149.019 87.3204 149.247 87.5813 149.546C87.842 149.845 88.0376 150.208 88.1681 150.635C88.2985 151.062 88.3637 151.544 88.3637 152.08ZM87.1474 152.159C87.1474 151.812 87.1151 151.485 87.0506 151.176C86.9858 150.868 86.8794 150.597 86.7311 150.365C86.5828 150.132 86.3818 149.948 86.1282 149.813C85.8746 149.678 85.5589 149.61 85.1809 149.61C84.8316 149.61 84.5313 149.672 84.2801 149.795C84.029 149.919 83.8221 150.093 83.6593 150.318C83.4966 150.544 83.3758 150.811 83.2969 151.119C83.218 151.428 83.1785 151.765 83.1785 152.13C83.1785 152.482 83.2107 152.811 83.2754 153.12C83.34 153.428 83.4478 153.698 83.5984 153.928C83.7491 154.158 83.9511 154.341 84.2047 154.476C84.4584 154.611 84.7741 154.679 85.1522 154.679C85.4967 154.679 85.7957 154.617 86.0493 154.494C86.303 154.371 86.511 154.197 86.6737 153.974C86.8364 153.751 86.9559 153.485 87.0325 153.177C87.1091 152.868 87.1474 152.529 87.1474 152.159Z" fill="#4976FF"/>
<path d="M92.3894 154.793C92.3894 154.95 92.3788 155.079 92.3575 155.181C92.3362 155.283 92.2958 155.366 92.2366 155.43C92.1773 155.494 92.1002 155.539 92.0055 155.565C91.9105 155.591 91.7896 155.605 91.6427 155.605C91.4957 155.605 91.3735 155.591 91.2765 155.565C91.1792 155.539 91.1022 155.494 91.0453 155.43C90.9885 155.366 90.9493 155.283 90.9281 155.181C90.9067 155.079 90.896 154.95 90.896 154.793C90.896 154.636 90.9067 154.505 90.9281 154.398C90.9493 154.291 90.9885 154.208 91.0453 154.149C91.1023 154.089 91.1793 154.046 91.2765 154.02C91.3736 153.994 91.4958 153.981 91.6427 153.981C91.7896 153.981 91.9106 153.994 92.0055 154.02C92.1003 154.046 92.1773 154.089 92.2366 154.149C92.2958 154.208 92.3362 154.291 92.3575 154.398C92.3788 154.504 92.3894 154.636 92.3894 154.793ZM92.1689 152.878C92.1689 152.916 92.1606 152.949 92.144 152.977C92.1274 153.006 92.0978 153.03 92.0552 153.049C92.0125 153.068 91.9579 153.082 91.8916 153.091C91.8251 153.101 91.7422 153.105 91.6426 153.105C91.543 153.105 91.46 153.101 91.3937 153.091C91.3273 153.082 91.2728 153.067 91.2302 153.049C91.1875 153.03 91.1579 153.006 91.1412 152.977C91.1246 152.949 91.1164 152.916 91.1164 152.878L90.9955 146.086C90.9908 146.029 90.9978 145.979 91.0168 145.936C91.0357 145.893 91.0701 145.858 91.12 145.829C91.1697 145.801 91.2362 145.781 91.3192 145.769C91.4021 145.757 91.5099 145.751 91.6427 145.751C91.7708 145.751 91.8762 145.758 91.9593 145.772C92.0422 145.787 92.1086 145.808 92.1584 145.836C92.2081 145.865 92.2426 145.899 92.2616 145.94C92.2804 145.98 92.29 146.029 92.29 146.086L92.1689 152.878Z" fill="#4976FF"/>
<path opacity="0.2" d="M52.7283 138.864H99.1968C101.122 138.864 102.682 140.426 102.682 142.353V155.669V158.932V167.532C102.682 168.676 101.345 169.297 100.472 168.558L93.2229 162.42H52.7283C50.8035 162.42 49.2432 160.858 49.2432 158.932V142.353C49.2433 140.426 50.8036 138.864 52.7283 138.864Z" fill="#95B0FF"/>
<path d="M359.625 187.048H369.017V188.376H367.417V197H365.849V192.408H363.113V193.112C363.113 193.816 362.761 194.152 362.201 194.152C361.337 194.152 360.185 192.904 360.185 191.96C360.185 191.432 360.457 191.08 361.241 191.08H365.849V188.376H359.625V187.048ZM377.245 188.376V197H375.677V193.16H372.317V193.656C372.317 194.408 371.933 194.728 371.453 194.728C370.557 194.728 369.389 193.448 369.389 192.584C369.389 192.168 369.645 191.832 370.429 191.832H370.749V188.376H368.797V187.048H378.845V188.376H377.245ZM375.677 188.376H372.317V191.832H375.677V188.376ZM383.169 197.272C381.521 195.64 380.273 194.088 379.713 193.064C379.393 192.504 379.249 192.04 379.249 191.624C379.249 191.032 379.601 190.68 380.209 190.68C380.705 190.68 381.137 190.968 381.553 191.4C382.033 190.984 382.193 190.376 382.193 189.72C382.193 189.192 382.097 188.712 381.953 188.376H378.625V187.048H386.689V188.376H383.537C383.697 188.808 383.777 189.304 383.777 189.896C383.777 190.6 383.585 191.208 383.249 191.704C383.873 191.912 384.481 191.992 385.153 191.992C385.713 191.992 386.225 191.944 386.817 191.848L386.865 193.16C386.305 193.304 385.825 193.336 385.201 193.336C384.321 193.336 383.265 193.144 382.337 192.648C382.065 192.84 381.729 193 381.313 193.144C382.081 194.136 383.137 195.144 384.337 196.264L383.169 197.272ZM393 188.376V197H391.432V191.928H389.256C388.008 191.928 387.272 192.328 387.272 193.384C387.272 194.344 387.912 195.16 389.128 196.312L388.008 197.272C386.52 195.832 385.688 194.632 385.688 193.192C385.688 191.416 386.952 190.6 389.016 190.6H391.432V188.376H385.016V187.048H394.6V188.376H393ZM391.463 187.16C390.631 184.504 390.311 184.024 389.271 184.024C388.839 184.024 388.359 184.136 387.991 184.28L387.575 182.968C388.055 182.776 388.679 182.664 389.239 182.664C391.143 182.664 391.767 183.576 392.871 187.16H391.463Z" fill="#5881FF"/>
</g>
<defs>
<linearGradient id="paint0_linear_182_466" x1="497.414" y1="-39.7534" x2="376.141" y2="31.5178" gradientUnits="userSpaceOnUse">
<stop stop-color="#95B0FF"/>
<stop offset="1" stop-color="white"/>
</linearGradient>
<linearGradient id="paint1_linear_182_466" x1="-64.852" y1="-127.028" x2="91.1595" y2="19.7893" gradientUnits="userSpaceOnUse">
<stop stop-color="#FF85DD"/>
<stop offset="1" stop-color="white"/>
</linearGradient>
<linearGradient id="paint2_linear_182_466" x1="456.727" y1="-27.7973" x2="382.094" y2="29.8476" gradientUnits="userSpaceOnUse">
<stop stop-color="#95B0FF"/>
<stop offset="1" stop-color="white"/>
</linearGradient>
<linearGradient id="paint3_linear_182_466" x1="239.806" y1="275.104" x2="254.464" y2="109.906" gradientUnits="userSpaceOnUse">
<stop stop-color="white"/>
<stop offset="1" stop-color="#F0EBFF"/>
</linearGradient>
<clipPath id="clip0_182_466">
<rect width="517" height="395" fill="white" transform="translate(-37)"/>
</clipPath>
</defs>
</svg>
