<svg width="17" height="17" viewBox="0 0 17 17" fill="none" xmlns="http://www.w3.org/2000/svg">
<path d="M9.20833 5.66667C9.77192 5.66667 10.3124 5.89055 10.7109 6.28906C11.1095 6.68758 11.3333 7.22808 11.3333 7.79167C11.3333 7.97953 11.408 8.1597 11.5408 8.29253C11.6736 8.42537 11.8538 8.5 12.0417 8.5C12.2295 8.5 12.4097 8.42537 12.5425 8.29253C12.6754 8.1597 12.75 7.97953 12.75 7.79167C12.75 6.85236 12.3769 5.95152 11.7127 5.28733C11.0485 4.62314 10.1476 4.25 9.20833 4.25C9.02047 4.25 8.8403 4.32463 8.70747 4.45747C8.57463 4.5903 8.5 4.77047 8.5 4.95833C8.5 5.14619 8.57463 5.32636 8.70747 5.4592C8.8403 5.59204 9.02047 5.66667 9.20833 5.66667Z" fill="white"/>
<path d="M9.20817 2.83317C10.5232 2.83317 11.7844 3.35556 12.7142 4.28543C13.6441 5.2153 14.1665 6.47647 14.1665 7.7915C14.1665 7.97937 14.2411 8.15953 14.374 8.29237C14.5068 8.42521 14.687 8.49984 14.8748 8.49984C15.0627 8.49984 15.2429 8.42521 15.3757 8.29237C15.5085 8.15953 15.5832 7.97937 15.5832 7.7915C15.5832 6.10075 14.9115 4.47924 13.716 3.2837C12.5204 2.08815 10.8989 1.4165 9.20817 1.4165C9.02031 1.4165 8.84014 1.49113 8.7073 1.62397C8.57446 1.75681 8.49984 1.93698 8.49984 2.12484C8.49984 2.3127 8.57446 2.49287 8.7073 2.6257C8.84014 2.75854 9.02031 2.83317 9.20817 2.83317ZM15.4061 11.2694C15.3671 11.1557 15.2999 11.0538 15.2106 10.9732C15.1214 10.8927 15.0132 10.8362 14.8961 10.809L10.6461 9.83859C10.5307 9.81243 10.4107 9.81558 10.2968 9.84775C10.183 9.87992 10.079 9.94008 9.99442 10.0228C9.89525 10.1148 9.88817 10.1219 9.42775 11.0003C7.89965 10.2968 6.67535 9.06748 5.97817 7.5365C6.87775 7.08317 6.88484 7.08317 6.97692 6.97692C7.05959 6.89231 7.11975 6.78835 7.15192 6.67452C7.18409 6.56069 7.18724 6.44062 7.16109 6.32525L6.19067 2.12484C6.1635 2.00775 6.10699 1.8995 6.02644 1.81027C5.94589 1.72105 5.84397 1.6538 5.73025 1.61484C5.56457 1.55662 5.39384 1.51394 5.22025 1.48734C5.04118 1.44609 4.85851 1.42237 4.67484 1.4165C3.81067 1.4165 2.9819 1.75979 2.37085 2.37085C1.75979 2.9819 1.4165 3.81067 1.4165 4.67484C1.42025 7.56676 2.57072 10.3392 4.61562 12.3841C6.66052 14.429 9.43292 15.5794 12.3248 15.5832C12.7527 15.5832 13.1764 15.4989 13.5717 15.3351C13.9671 15.1714 14.3263 14.9314 14.6288 14.6288C14.9314 14.3263 15.1714 13.9671 15.3351 13.5717C15.4989 13.1764 15.5832 12.7527 15.5832 12.3248C15.5827 12.1446 15.5685 11.9646 15.5407 11.7865C15.511 11.6105 15.466 11.4375 15.4061 11.2694Z" fill="white"/>
</svg>
