<svg width="22" height="22" viewBox="0 0 22 22" fill="none" xmlns="http://www.w3.org/2000/svg">
<path fill-rule="evenodd" clip-rule="evenodd" d="M21.2333 4.49808C21.2936 4.60237 21.3328 4.71753 21.3486 4.83697C21.3644 4.95641 21.3565 5.07779 21.3253 5.19417C21.2942 5.31055 21.2404 5.41965 21.167 5.51523C21.0937 5.6108 21.0022 5.69098 20.8978 5.75117L18.8958 6.90708L20.8969 8.06392C21.1073 8.18563 21.2607 8.38591 21.3235 8.62072C21.3862 8.85554 21.3531 9.10566 21.2315 9.31608L20.0242 11.4061C19.9025 11.6165 19.7022 11.7699 19.4674 11.8326C19.2326 11.8954 18.9825 11.8623 18.7721 11.7407L16.7701 10.5838V12.8975C16.7701 13.1406 16.6735 13.3738 16.5016 13.5457C16.3297 13.7176 16.0965 13.8142 15.8534 13.8142H13.4362C13.193 13.8142 12.9599 13.7176 12.788 13.5457C12.6161 13.3738 12.5195 13.1406 12.5195 12.8975V10.5838L10.5184 11.7407C10.308 11.8623 10.0579 11.8954 9.82304 11.8326C9.58823 11.7699 9.38795 11.6165 9.26624 11.4061L8.05807 9.31608C7.93652 9.10554 7.90358 8.85534 7.96649 8.62052C8.02941 8.38569 8.18303 8.18548 8.39357 8.06392L10.3947 6.90708L8.39357 5.75117C8.2892 5.69098 8.19772 5.6108 8.12437 5.51523C8.05101 5.41965 7.99721 5.31055 7.96605 5.19417C7.93489 5.07779 7.92698 4.95641 7.94277 4.83697C7.95856 4.71753 7.99774 4.60237 8.05807 4.49808L9.26624 2.40808C9.38795 2.19771 9.58823 2.04428 9.82304 1.98153C10.0579 1.91879 10.308 1.95187 10.5184 2.0735L12.5195 3.23033V0.916667C12.5195 0.673551 12.6161 0.440394 12.788 0.268485C12.9599 0.0965771 13.193 0 13.4362 0L15.8534 0C16.0965 0 16.3297 0.0965771 16.5016 0.268485C16.6735 0.440394 16.7701 0.673551 16.7701 0.916667V3.23033L18.7712 2.0735C18.8754 2.01317 18.9906 1.97399 19.11 1.9582C19.2295 1.94241 19.3509 1.95033 19.4672 1.98149C19.5836 2.01265 19.6927 2.06644 19.7883 2.1398C19.8839 2.21316 19.964 2.30463 20.0242 2.409L21.2333 4.49808ZM2.75882 9.37017C3.14749 9.31975 3.54074 9.42058 3.85607 9.65342C3.8744 9.66564 3.89182 9.68061 3.90832 9.69833L5.48865 11.2787L5.53449 11.3309C5.7666 11.6463 5.86788 12.0391 5.81714 12.4274C5.76641 12.8157 5.56759 13.1694 5.26224 13.4145C5.14527 13.5084 5.06763 13.6427 5.04457 13.7909C5.0215 13.9391 5.05467 14.0906 5.13757 14.2157L7.61073 16.6898C7.73576 16.7726 7.88726 16.8058 8.03549 16.7828C8.18372 16.7597 8.31797 16.682 8.4119 16.5651C8.65704 16.2597 9.01069 16.0609 9.39897 16.0102C9.78725 15.9594 10.1801 16.0607 10.4955 16.2928C10.5138 16.3063 10.5312 16.3212 10.5477 16.3377L12.129 17.919L12.1739 17.9712C12.4032 18.2828 12.5049 18.6702 12.4582 19.0542C12.4115 19.4382 12.22 19.7899 11.9227 20.0374L11.4607 20.4994C10.9297 21.1143 10.2173 21.545 9.42599 21.7295C8.63472 21.9139 7.80532 21.8427 7.05707 21.5261L7.00024 21.4977C4.26247 19.8555 1.97143 17.5642 0.329652 14.8262L0.299402 14.7675C-0.0139711 14.019 -0.083439 13.1908 0.100872 12.4006C0.285183 11.6103 0.713894 10.8983 1.32607 10.3657L1.78899 9.90367C2.03374 9.61033 2.38023 9.41967 2.75882 9.37017Z" fill="white"/>
</svg>
