<svg width="57" height="57" viewBox="0 0 57 57" fill="none" xmlns="http://www.w3.org/2000/svg">
<path d="M11.875 22.5625C11.875 22.5625 5.76769 24.9375 4.75 33.25M45.125 22.5625C45.125 22.5625 51.2323 24.9375 52.25 33.25M21.375 22.5625C21.375 22.5625 27.075 23.9483 28.5 30.875C29.925 23.9483 35.625 22.5625 35.625 22.5625M23.75 40.375C23.75 40.375 18.7625 41.2656 16.625 47.5M33.25 40.375C33.25 40.375 38.2375 41.2656 40.375 47.5" stroke="#F58D8B" stroke-width="2" stroke-linecap="round"/>
<path d="M28.5 42.75C31.7792 42.75 34.4375 40.0917 34.4375 36.8125C34.4375 33.5333 31.7792 30.875 28.5 30.875C25.2208 30.875 22.5625 33.5333 22.5625 36.8125C22.5625 40.0917 25.2208 42.75 28.5 42.75Z" fill="#F58D8B" stroke="#F58D8B" stroke-width="2" stroke-linecap="round" stroke-linejoin="round"/>
<path d="M40.375 23.75C44.31 23.75 47.5 20.56 47.5 16.625C47.5 12.69 44.31 9.5 40.375 9.5C36.44 9.5 33.25 12.69 33.25 16.625C33.25 20.56 36.44 23.75 40.375 23.75Z" fill="#F58D8B" stroke="#F58D8B" stroke-width="2" stroke-linecap="round" stroke-linejoin="round"/>
<path d="M16.625 23.75C20.56 23.75 23.75 20.56 23.75 16.625C23.75 12.69 20.56 9.5 16.625 9.5C12.69 9.5 9.5 12.69 9.5 16.625C9.5 20.56 12.69 23.75 16.625 23.75Z" fill="#F58D8B" stroke="#F58D8B" stroke-width="2" stroke-linecap="round" stroke-linejoin="round"/>
</svg>
