<svg width="31" height="31" viewBox="0 0 31 31" fill="none" xmlns="http://www.w3.org/2000/svg">
<rect x="0.5" y="0.5" width="30" height="30" rx="2.5" fill="white"/>
<rect x="0.5" y="0.5" width="30" height="30" rx="2.5" stroke="#B88920"/>
<path d="M22.884 16.8842C23.1178 16.6493 23.249 16.3315 23.249 16.0002C23.249 15.6688 23.1178 15.351 22.884 15.1162L17.884 10.1162C17.7679 10.0001 17.6301 9.90799 17.4784 9.84516C17.3268 9.78234 17.1642 9.75 17 9.75C16.6685 9.75 16.3505 9.88171 16.116 10.1162C15.8816 10.3506 15.7499 10.6686 15.7499 11.0002C15.7499 11.3317 15.8816 11.6497 16.116 11.8842L18.982 14.7502H10C9.66851 14.7502 9.35056 14.8819 9.11614 15.1163C8.88172 15.3507 8.75003 15.6686 8.75003 16.0002C8.75003 16.3317 8.88172 16.6496 9.11614 16.884C9.35056 17.1185 9.66851 17.2502 10 17.2502H18.982L16.116 20.1162C15.9999 20.2323 15.9079 20.3701 15.845 20.5217C15.7822 20.6734 15.7499 20.836 15.7499 21.0002C15.7499 21.1643 15.7822 21.3269 15.845 21.4786C15.9079 21.6303 15.9999 21.7681 16.116 21.8842C16.2321 22.0003 16.3699 22.0923 16.5216 22.1552C16.6733 22.218 16.8359 22.2503 17 22.2503C17.1642 22.2503 17.3268 22.218 17.4784 22.1552C17.6301 22.0923 17.7679 22.0003 17.884 21.8842L22.884 16.8842Z" fill="#B88920"/>
</svg>
