<svg width="43" height="49" viewBox="0 0 43 49" fill="none" xmlns="http://www.w3.org/2000/svg">
<path d="M37 40.3594V42H0V40.3594C0 39.8158 0.443752 39.375 0.991071 39.375H2.64286V9.84375C2.64286 8.75643 3.53028 7.875 4.625 7.875H11.8929V1.96875C11.8929 0.881426 12.7803 0 13.875 0H23.125C24.2197 0 25.1071 0.881426 25.1071 1.96875V7.875H32.375C33.4697 7.875 34.3571 8.75643 34.3571 9.84375V39.375H36.0089C36.5562 39.375 37 39.8158 37 40.3594ZM25.4375 15.75H22.1339C21.5866 15.75 21.1429 16.1908 21.1429 16.7344V20.0156C21.1429 20.5592 21.5866 21 22.1339 21H25.4375C25.9848 21 26.4286 20.5592 26.4286 20.0156V16.7344C26.4286 16.1908 25.9848 15.75 25.4375 15.75ZM11.5625 21H14.8661C15.4134 21 15.8571 20.5592 15.8571 20.0156V16.7344C15.8571 16.1908 15.4134 15.75 14.8661 15.75H11.5625C11.0152 15.75 10.5714 16.1908 10.5714 16.7344V20.0156C10.5714 20.5592 11.0152 21 11.5625 21ZM20.1518 31.5H16.8482C16.3009 31.5 15.8571 31.9408 15.8571 32.4844V39.375H21.1429V32.4844C21.1429 31.9408 20.6991 31.5 20.1518 31.5ZM25.4375 23.625H22.1339C21.5866 23.625 21.1429 24.0658 21.1429 24.6094V27.8906C21.1429 28.4342 21.5866 28.875 22.1339 28.875H25.4375C25.9848 28.875 26.4286 28.4342 26.4286 27.8906V24.6094C26.4286 24.0658 25.9848 23.625 25.4375 23.625ZM15.8571 24.6094C15.8571 24.0658 15.4134 23.625 14.8661 23.625H11.5625C11.0152 23.625 10.5714 24.0658 10.5714 24.6094V27.8906C10.5714 28.4342 11.0152 28.875 11.5625 28.875H14.8661C15.4134 28.875 15.8571 28.4342 15.8571 27.8906V24.6094ZM15.0312 7.875H17.1786V10.0078C17.1786 10.1383 17.2308 10.2635 17.3237 10.3558C17.4166 10.4481 17.5427 10.5 17.6741 10.5H19.3259C19.4573 10.5 19.5834 10.4481 19.6763 10.3558C19.7692 10.2635 19.8214 10.1383 19.8214 10.0078V7.875H21.9688C22.1002 7.875 22.2262 7.82314 22.3191 7.73084C22.4121 7.63854 22.4643 7.51335 22.4643 7.38281V5.74219C22.4643 5.61165 22.4121 5.48646 22.3191 5.39416C22.2262 5.30186 22.1002 5.25 21.9688 5.25H19.8214V3.11719C19.8214 2.98665 19.7692 2.86146 19.6763 2.76916C19.5834 2.67686 19.4573 2.625 19.3259 2.625H17.6741C17.5427 2.625 17.4166 2.67686 17.3237 2.76916C17.2308 2.86146 17.1786 2.98665 17.1786 3.11719V5.25H15.0312C14.8998 5.25 14.7738 5.30186 14.6809 5.39416C14.5879 5.48646 14.5357 5.61165 14.5357 5.74219V7.38281C14.5357 7.51335 14.5879 7.63854 14.6809 7.73084C14.7738 7.82314 14.8998 7.875 15.0312 7.875Z" fill="#F58D8B"/>
</svg>
