<svg width="17" height="17" viewBox="0 0 17 17" fill="none" xmlns="http://www.w3.org/2000/svg">
<g clip-path="url(#clip0_67_741)">
<path d="M8.50005 0C5.72038 0 3.44238 2.2712 3.44238 5.04322C3.44238 6.11728 3.78544 7.11552 4.36599 7.93594L7.88278 14.0156C8.37527 14.6591 8.70269 14.5369 9.11222 13.9817L12.9913 7.38055C13.0695 7.23877 13.131 7.08781 13.1846 6.93362C13.4306 6.33375 13.5572 5.6916 13.5572 5.04322C13.5574 2.2712 11.2801 0 8.50005 0ZM8.50005 2.363C9.99707 2.363 11.1874 3.55062 11.1874 5.04322C11.1874 6.53582 9.99707 7.7231 8.50005 7.7231C7.0032 7.7231 5.81235 6.53616 5.81235 5.04339C5.81235 3.55062 7.0032 2.36317 8.49988 2.36317" fill="#F58D8B"/>
<path d="M11.7152 8.31445L11.707 8.33587L11.7141 8.31632L11.7152 8.31445ZM5.78097 11.7398C3.37955 12.0791 1.69995 12.8909 1.69995 14.0858C1.69995 15.6953 4.50631 17.0001 8.49995 17.0001C12.4936 17.0001 15.3 15.6953 15.3 14.0858C15.3 12.8909 13.6205 12.0791 11.2193 11.7398L10.8866 12.3062C12.6964 12.5573 13.94 13.085 13.94 13.6973C13.94 14.5558 11.5044 15.2516 8.49995 15.2516C5.49554 15.2516 3.05995 14.5558 3.05995 13.6973C3.05978 13.087 4.29517 12.5599 6.1106 12.3078L5.78097 11.7398Z" fill="#F58D8B"/>
</g>
<defs>
<clipPath id="clip0_67_741">
<rect width="17" height="17" fill="white"/>
</clipPath>
</defs>
</svg>
