<svg width="28" height="28" viewBox="0 0 28 28" fill="none" xmlns="http://www.w3.org/2000/svg">
<path d="M11.0835 18.1814V9.81869C11.0837 9.71406 11.112 9.6114 11.1655 9.52147C11.219 9.43155 11.2956 9.35766 11.3875 9.30756C11.4794 9.25745 11.583 9.23298 11.6876 9.2367C11.7921 9.24042 11.8938 9.27219 11.9818 9.32869L18.4872 13.5089C18.5695 13.5616 18.6373 13.6343 18.6843 13.7201C18.7312 13.8059 18.7558 13.9022 18.7558 14C18.7558 14.0979 18.7312 14.1941 18.6843 14.2799C18.6373 14.3658 18.5695 14.4384 18.4872 14.4912L11.9818 18.6725C11.8938 18.729 11.7921 18.7608 11.6876 18.7645C11.583 18.7682 11.4794 18.7438 11.3875 18.6937C11.2956 18.6436 11.219 18.5697 11.1655 18.4797C11.112 18.3898 11.0837 18.2872 11.0835 18.1825V18.1814Z" fill="#0E9E87"/>
<path d="M1.1665 13.9998C1.1665 6.91234 6.91234 1.1665 13.9998 1.1665C21.0873 1.1665 26.8332 6.91234 26.8332 13.9998C26.8332 21.0873 21.0873 26.8332 13.9998 26.8332C6.91234 26.8332 1.1665 21.0873 1.1665 13.9998ZM13.9998 2.9165C11.0604 2.9165 8.24126 4.08421 6.16274 6.16274C4.08421 8.24126 2.9165 11.0604 2.9165 13.9998C2.9165 16.9393 4.08421 19.7584 6.16274 21.8369C8.24126 23.9155 11.0604 25.0832 13.9998 25.0832C16.9393 25.0832 19.7584 23.9155 21.8369 21.8369C23.9155 19.7584 25.0832 16.9393 25.0832 13.9998C25.0832 11.0604 23.9155 8.24126 21.8369 6.16274C19.7584 4.08421 16.9393 2.9165 13.9998 2.9165Z" fill="#0E9E87"/>
</svg>
